<?xml version="1.0" encoding="UTF-8"?>
<svg width="24px" height="24px" viewBox="0 0 24 24" version="1.1" xmlns="http://www.w3.org/2000/svg" xmlns:xlink="http://www.w3.org/1999/xlink">
    <title>B82BD7AF-CC75-4B8C-A018-EB7F2C924A53</title>
    <g id="Signup" stroke="none" stroke-width="1" fill="none" fill-rule="evenodd">
        <g id="Account_Signup" transform="translate(-990.000000, -589.000000)">
            <rect fill="#FFFFFF" x="0" y="0" width="1440" height="1701"></rect>
            <g id="LOYALTY-Card" transform="translate(960.000000, 284.000000)">
                <rect id="Rectangle" fill="#F4F4F4" x="0" y="0" width="400" height="367"></rect>
                <g id="Icon/24px/Bell" transform="translate(30.000000, 305.000000)" fill="#000000" fill-rule="nonzero">
                    <path d="M12.0000256,0 C13.3233815,0 14.4000182,0.946265625 14.4000182,2.109375 L14.4000182,2.109375 L14.4000182,3.12515625 C17.7914212,4.03120313 20.266667,6.80521875 20.266667,10.078125 L20.266667,10.078125 L20.266667,12.3216563 C20.266667,15.1965469 21.5134898,17.9226563 23.7774296,19.9977188 C23.9992422,20.2010625 24.0615887,20.5011094 23.9358291,20.7602344 C23.8100695,21.0193594 23.5205237,21.1875 23.1999913,21.1875 L23.1999913,21.1875 L15.9195336,21.1875 C15.5478547,22.79025 13.931753,24 12.0000256,24 C10.0683515,24 8.45214311,22.79025 8.08051758,21.1875 L8.08051758,21.1875 L0.800059846,21.1875 C0.479527493,21.1875 0.189928379,21.0193594 0.0641687635,20.7602344 C-0.0615908519,20.5011094 0.000755624085,20.2010625 0.222621612,19.9977188 C2.48656135,17.9226563 3.73338421,15.1965938 3.73338421,12.3216563 L3.73338421,12.3216563 L3.73338421,10.078125 C3.73338421,6.80517188 6.20857664,4.03120313 9.60003293,3.12515625 L9.60003293,3.12515625 L9.60003293,2.109375 C9.60003293,0.946265625 10.6766696,0 12.0000256,0 Z M14.2624187,21.1875 L9.73763251,21.1875 C10.0678715,22.0058906 10.9570954,22.59375 12.0000256,22.59375 C13.0429557,22.59375 13.9321797,22.0058906 14.2624187,21.1875 L14.2624187,21.1875 Z M12.0000256,4.21875 C8.32403683,4.21875 5.33337931,6.84726563 5.33337931,10.078125 L5.33337931,10.078125 L5.33337931,12.3216563 C5.33337931,15.037125 4.34623567,17.63475 2.52432124,19.78125 L2.52432124,19.78125 L21.4757833,19.78125 C19.6538155,17.63475 18.6666719,15.037125 18.6666719,12.3216563 L18.6666719,12.3216563 L18.6666719,10.078125 C18.6666719,6.84726563 15.6760143,4.21875 12.0000256,4.21875 Z M19.3539231,2.6203125 C19.6663488,2.34571875 20.1729073,2.34576562 20.4852796,2.6203125 C22.7517794,4.61235937 23.9999889,7.2609375 23.9999889,10.078125 C23.9999889,10.4664375 23.6418033,10.78125 23.1999913,10.78125 C22.7581793,10.78125 22.3999938,10.4664375 22.3999938,10.078125 C22.3999938,7.63654687 21.3182371,5.341125 19.3539231,3.61467187 C19.0414974,3.34007812 19.0414974,2.89490625 19.3539231,2.6203125 Z M3.51477154,2.62035937 C3.82719725,2.34576562 4.3337557,2.34576562 4.64612808,2.62035937 C4.95855379,2.89495312 4.95855379,3.340125 4.64612808,3.61471875 C2.68186742,5.34117187 1.6000574,7.63659375 1.6000574,10.078125 C1.6000574,10.4664375 1.24187183,10.78125 0.800059846,10.78125 C0.358247864,10.78125 6.22928713e-05,10.4664375 6.22928713e-05,10.078125 C6.22928713e-05,7.2609375 1.24827181,4.61240625 3.51477154,2.62035937 Z M12.0000256,1.40625 C11.5589069,1.40625 11.200028,1.72167188 11.200028,2.109375 L11.200028,2.109375 L11.200028,2.846625 C11.4633339,2.8243125 11.7301597,2.8125 12.0000256,2.8125 C12.2698914,2.8125 12.5367173,2.8243125 12.8000231,2.846625 L12.8000231,2.846625 L12.8000231,2.109375 C12.8000231,1.72167188 12.4411442,1.40625 12.0000256,1.40625 Z" id="Combined-Shape"></path>
                </g>
            </g>
        </g>
    </g>
</svg>