<?xml version="1.0" encoding="UTF-8"?>
<svg width="94px" height="51px" viewBox="0 0 94 51" version="1.1" xmlns="http://www.w3.org/2000/svg" xmlns:xlink="http://www.w3.org/1999/xlink">
    <title>B02C9E9F-4A34-491E-A5C4-CE9056BEBEEF</title>
    <g id="Dashboard-&amp;-Account-Pages" stroke="none" stroke-width="1" fill="none" fill-rule="evenodd">
        <g id="My-Account_Orders-Details_In-Process" transform="translate(-478.000000, -865.000000)">
            <g id="Order-Summary" transform="translate(478.000000, 354.000000)">
                <g id="Card-VISA" transform="translate(0.000000, 511.000000)">
                    <rect id="Rectangle" stroke="#979797" stroke-width="0.86284" fill="#FFFFFF" x="0.43142" y="4.43449944" width="92.5423469" height="43.1710338" rx="1.72568"></rect>
                    <g id="visa" transform="translate(21.349757, 0.000000)">
                        <g id="Group" transform="translate(4.447866, 18.681037)" fill="#2566AF" fill-rule="nonzero">
                            <path d="M18.5106403,13.9959334 L15.0264487,13.9959334 L17.2040237,0.245697559 L20.6885732,0.245697559 L18.5106403,13.9959334 Z M12.0953318,0.245697559 L8.77366188,9.70321454 L8.38060297,7.66664659 L8.38096095,7.66738222 L7.20858579,1.48374843 C7.20858579,1.48374843 7.06682684,0.245697559 5.55580531,0.245697559 L0.0644358863,0.245697559 L0,0.478521743 C0,0.478521743 1.67927079,0.837505004 3.64456533,2.05017694 L6.67162007,13.9963012 L10.3018663,13.9963012 L15.8451424,0.245697559 L12.0953318,0.245697559 Z M39.5002722,13.9959334 L42.699514,13.9959334 L39.9101561,0.245329749 L37.1093429,0.245329749 C35.8159715,0.245329749 35.5009516,1.27005041 35.5009516,1.27005041 L30.3045553,13.9959334 L33.9365914,13.9959334 L34.6629271,11.9534805 L39.0921783,11.9534805 L39.5002722,13.9959334 Z M35.666337,9.13200449 L37.4970321,3.98633256 L38.5269324,9.13200449 L35.666337,9.13200449 Z M30.5769759,3.55231591 L31.0742062,0.599531469 C31.0742062,0.599531469 29.5399161,0 27.9404742,0 C26.2114446,0 22.1054468,0.776448424 22.1054468,4.55202544 C22.1054468,8.10434135 26.9245351,8.14847863 26.9245351,10.0143824 C26.9245351,11.8802862 22.6019611,11.5459462 21.1754221,10.3693197 L20.6574292,13.4567229 C20.6574292,13.4567229 22.2131979,14.2331713 24.5901661,14.2331713 C26.9678503,14.2331713 30.5547813,12.9682703 30.5547813,9.52556196 C30.5547813,5.95044179 25.6923778,5.61757309 25.6923778,4.063205 C25.6927357,2.50846909 29.0860011,2.70819031 30.5769759,3.55231591 L30.5769759,3.55231591 Z" id="Shape"></path>
                        </g>
                        <path d="M12.4540249,25.797623 L11.3340791,19.8681931 C11.3340791,19.8681931 11.1986598,18.6810374 9.75521209,18.6810374 L4.50942031,18.6810374 L4.44786604,18.9042904 C4.44786604,18.9042904 6.96919738,19.4432012 9.3875963,21.4623534 C11.6999851,23.3922749 12.4540249,25.797623 12.4540249,25.797623 Z" id="Path" fill="#E6A540" fill-rule="nonzero"></path>
                        <polygon id="Path" points="0 0 50.7056729 0 50.7056729 50.7056729 0 50.7056729"></polygon>
                    </g>
                </g>
            </g>
        </g>
    </g>
</svg>