<?xml version="1.0" encoding="UTF-8"?>
<svg width="24px" height="24px" viewBox="0 0 24 24" version="1.1" xmlns="http://www.w3.org/2000/svg" xmlns:xlink="http://www.w3.org/1999/xlink">
    <title>633D7F1B-A987-4AB0-B0B6-F8DB4E453963</title>
    <g id="Home-Page-+" stroke="none" stroke-width="1" fill="none" fill-rule="evenodd">
        <g id="Home-Page-" transform="translate(-1336.000000, -70.000000)">
            <rect fill="#FFFFFF" x="0" y="0" width="1440" height="6225"></rect>
            <g id="Brand-Main-Menu-Bar-" transform="translate(80.000000, 62.000000)">
                <g id="Icon/Cart" transform="translate(1256.000000, 8.000000)">
                    <rect id="Rectangle" x="0" y="0" width="24" height="24"></rect>
                    <path d="M19.5787181,20.25 L4.42128188,20.25 C4.03911989,20.25 3.71807169,19.962648 3.67586906,19.5828234 L2.34253594,7.58282344 C2.31897738,7.37079587 2.38682686,7.15876873 2.52910281,6.99980883 C2.67137876,6.84084893 2.87461639,6.75 3.08794875,6.75 L20.9120513,6.75 C21.1253836,6.75 21.3286212,6.84084893 21.4708972,6.99980883 C21.6131731,7.15876873 21.6810226,7.37079587 21.6574641,7.58282344 L20.3241309,19.5828234 C20.2819283,19.962648 19.9608801,20.25 19.5787181,20.25 Z" id="Path" stroke="#000000" stroke-width="2" stroke-linecap="round" stroke-linejoin="round"></path>
                    <path d="M8.25,9.75 L8.25,6.75 C8.25,4.67893219 9.92893219,3 12,3 C14.0710678,3 15.75,4.67893219 15.75,6.75 L15.75,9.75" id="Path" stroke="#000000" stroke-width="2" stroke-linecap="round" stroke-linejoin="round"></path>
                </g>
            </g>
        </g>
    </g>
</svg>