<?xml version="1.0" encoding="UTF-8"?>
<svg width="52px" height="52px" viewBox="0 0 52 52" version="1.1" xmlns="http://www.w3.org/2000/svg" xmlns:xlink="http://www.w3.org/1999/xlink">
    <title>E3136347-0763-4C97-99DD-CDD185C9BDA7</title>
    <g id="Login" stroke="none" stroke-width="1" fill="none" fill-rule="evenodd">
        <g id="MA_Account_LogIn" transform="translate(-694.000000, -1396.000000)">
            <g id="Contact-Us" transform="translate(456.000000, 1270.000000)">
                <g id="Button/Primery/Default" transform="translate(238.000000, 126.000000)">
                    <circle id="Oval" fill="#000000" cx="26" cy="26" r="26"></circle>
                    <path d="M25.993261,12.59375 C29.5761051,12.59375 32.9378559,13.9882267 35.4719244,16.522093 C38.0059929,19.0559593 39.40625,22.4174419 39.40625,26 C39.40625,29.5825581 38.011662,32.9440407 35.4775935,35.477907 C32.8925034,38.0627907 29.4570549,39.40625 25.9875919,39.40625 C23.8276812,39.40625 21.6507633,38.8847384 19.6609242,37.8133721 C17.8751713,39.1001453 16.1291017,39.377907 14.9442688,39.377907 C14.5020823,39.377907 14.1392627,39.3382267 13.8841551,39.2985465 C13.3399256,39.2135174 12.9204154,38.7883721 12.8353795,38.244186 C12.7503437,37.7 13.0281275,37.1728198 13.5213355,36.9290698 C14.5474348,36.424564 15.2390597,35.4155523 15.6699081,34.5482558 C11.2763889,29.2594477 11.6165323,21.4197674 16.5145976,16.522093 C19.0486661,13.9882267 22.4104169,12.59375 25.993261,12.59375 Z M34.3834654,17.6047965 C29.7575149,12.9735465 22.223338,12.9735465 17.5917184,17.6047965 C13.1585158,22.0376453 12.9430916,29.1800872 17.0928414,33.8680233 C17.2005535,33.9927326 17.2629131,34.1457849 17.2799203,34.2988372 C17.3196037,34.4575581 17.3082656,34.6276163 17.2402369,34.7920058 C16.8150576,35.7613372 16.0894183,37.0084302 14.9385997,37.8473837 L14.9385997,37.8473837 C15.9420228,37.8473837 17.449992,37.5979651 18.9863065,36.4075581 C19.0033136,36.3905523 19.0259899,36.3735465 19.0486661,36.3622093 C19.2924355,36.1184593 19.6722624,36.0617733 19.9783914,36.2431686 C24.6383564,38.9811047 30.562521,38.2215116 34.3891345,34.3952035 C39.0207541,29.7639535 39.0207541,22.2360465 34.3834654,17.6047965 Z M25.993261,25.0590116 C26.512996,25.0590116 26.9343245,25.4803065 26.9343245,26 C26.9343245,26.5196935 26.512996,26.9409884 25.993261,26.9409884 C25.473526,26.9409884 25.0521975,26.5196935 25.0521975,26 C25.0521975,25.4803065 25.473526,25.0590116 25.993261,25.0590116 Z M30.8459738,25.0590116 C31.3657088,25.0590116 31.7870373,25.4803065 31.7870373,26 C31.7870373,26.5196935 31.3657088,26.9409884 30.8459738,26.9409884 C30.3262388,26.9409884 29.9049104,26.5196935 29.9049104,26 C29.9049104,25.4803065 30.3262388,25.0590116 30.8459738,25.0590116 Z M21.1405481,25.0590116 C21.6602831,25.0590116 22.0816116,25.4803065 22.0816116,26 C22.0816116,26.5196935 21.6602831,26.9409884 21.1405481,26.9409884 C20.6208131,26.9409884 20.1994847,26.5196935 20.1994847,26 C20.1994847,25.4803065 20.6208131,25.0590116 21.1405481,25.0590116 Z" id="Combined-Shape" fill="#FFFFF0" fill-rule="nonzero"></path>
                </g>
            </g>
        </g>
    </g>
</svg>