<?xml version="1.0" encoding="UTF-8"?>
<svg width="28px" height="28px" viewBox="0 0 28 28" version="1.1" xmlns="http://www.w3.org/2000/svg" xmlns:xlink="http://www.w3.org/1999/xlink">
    <title>0F2300AE-3885-423A-B224-F7F791CE4B50</title>
    <g id="PDP" stroke="none" stroke-width="1" fill="none" fill-rule="evenodd">
        <g transform="translate(-1253.000000, -1302.000000)">
            <rect fill="#FFFFFF" x="0" y="0" width="1440" height="5093"></rect>
            <g id="Main-Product-Details" transform="translate(80.000000, 284.000000)" fill="#000000" fill-rule="nonzero">
                <g id="Product-Details-" transform="translate(778.000000, 3.000000)">
                    <g id="List-Copy-2" transform="translate(363.000000, 1015.000000)">
                        <g id="Icon/Click&amp;Collect" transform="translate(32.000000, 0.000000)">
                            <path d="M22.7643211,0 C23.1238404,0 23.439401,0.263053888 23.5257484,0.639086047 L23.5257484,0.639086047 L25.0957016,7.38405753 C25.1114011,7.449821 25.1192509,7.51895695 25.1192509,7.58809291 C25.1192509,9.00116444 24.4959794,10.2472979 23.5492977,11.0128522 L23.5492977,11.0128522 L23.549,19.218 L25.0309491,19.8511798 C25.1913919,19.9195519 25.3158994,20.0565719 25.377306,20.2263738 L25.4063606,20.331902 C25.4478814,20.5502957 25.3852922,20.7758355 25.2385117,20.9334883 L25.2385117,20.9334883 L24.2007397,22.0481303 L27.8195326,25.9348865 C28.0601558,26.193333 28.0601558,26.6120792 27.8195326,26.8705258 L27.8195326,26.8705258 L26.9484186,27.8061651 C26.7077954,28.0646116 26.3179276,28.0646116 26.0773045,27.8061651 L26.0773045,27.8061651 L22.4585526,23.9193647 L21.4207807,25.0340067 C21.2733841,25.191042 21.0616325,25.2562822 20.860682,25.2142885 C20.6579655,25.1690306 20.4895005,25.017862 20.4131122,24.8110694 L20.4131122,24.8110694 L19.967,23.607 L14.9145552,23.6074002 C14.5145794,23.6074002 14.1841647,23.2855573 14.1356984,22.8699909 L14.1295786,22.7642787 L14.1295786,16.8624287 L10.9896723,16.8624287 L10.9896723,22.7642787 C10.9896723,23.2296818 10.6380027,23.6074002 10.2046957,23.6074002 L10.2046957,23.6074002 L2.35492977,23.6074002 C1.92162269,23.6074002 1.56995318,23.2296818 1.56995318,22.7642787 L1.56995318,22.7642787 L1.56995318,11.0128522 C0.623271412,10.2472979 0,9.00116444 0,7.58809291 C0,7.51895695 0.00784976589,7.449821 0.0235492977,7.38405753 L0.0235492977,7.38405753 L1.59350248,0.639086047 C1.6798499,0.263053888 1.99541049,0 2.35492977,0 L2.35492977,0 Z M18.4469498,10.1731032 C17.7640202,11.164614 16.699592,11.8037001 15.5032876,11.8037001 C14.3069833,11.8037001 13.2425551,11.164614 12.5596254,10.1731032 C11.8766958,11.164614 10.8122675,11.8037001 9.61596322,11.8037001 C8.4196589,11.8037001 7.35523064,11.164614 6.67230101,10.1731032 C5.98937138,11.164614 4.92494312,11.8037001 3.7286388,11.8037001 C3.52768479,11.8037001 3.3330106,11.7716615 3.13990636,11.7362504 L3.13990636,11.7362504 L3.13990636,21.9211573 L9.41971907,21.9211573 L9.41971907,16.0193073 C9.41971907,15.5539042 9.77138858,15.1761858 10.2046957,15.1761858 L10.2046957,15.1761858 L14.9145552,15.1761858 C15.3478623,15.1761858 15.6995318,15.5539042 15.6995318,16.0193073 L15.6995318,16.0193073 L15.6995318,21.9211573 L19.342,21.921 L17.8882326,17.9986484 C17.8098378,17.7882009 17.8384369,17.5520862 17.9576847,17.3713339 L18.0247869,17.2859463 C18.1998229,17.097901 18.4609395,17.0417035 18.6883384,17.1392771 L18.6883384,17.1392771 L21.979,18.546 L21.9793445,11.7362504 C21.8506083,11.7598578 21.7211744,11.7819663 21.5896472,11.7940823 L21.3906121,11.8037001 C20.1943077,11.8037001 19.1298795,11.164614 18.4469498,10.1731032 Z M22.1520394,1.68624287 L2.96878146,1.68624287 L1.57152313,7.685895 C1.61548182,9.03488929 2.56687345,10.1174572 3.7286388,10.1174572 C4.91866331,10.1174572 5.88732442,8.98261577 5.88732442,7.58809291 C5.88732442,7.12268988 6.23899393,6.74497148 6.67230101,6.74497148 C7.10560809,6.74497148 7.4572776,7.12268988 7.4572776,7.58809291 C7.4572776,8.98261577 8.42593871,10.1174572 9.61596322,10.1174572 C10.8059877,10.1174572 11.7746488,8.98261577 11.7746488,7.58809291 C11.7746488,7.12268988 12.1263184,6.74497148 12.5596254,6.74497148 C12.9929325,6.74497148 13.344602,7.12268988 13.344602,7.58809291 C13.344602,8.98261577 14.3132631,10.1174572 15.5032876,10.1174572 C16.6933121,10.1174572 17.6619733,8.98261577 17.6619733,7.58809291 C17.6619733,7.12268988 18.0136428,6.74497148 18.4469498,6.74497148 C18.8802569,6.74497148 19.2319264,7.12268988 19.2319264,7.58809291 C19.2319264,8.98261577 20.2005876,10.1174572 21.3906121,10.1174572 C22.5523774,10.1174572 23.503769,9.03488929 23.5492977,7.685895 L23.5492977,7.685895 L22.1520394,1.68624287 Z" id="Combined-Shape"></path>
                        </g>
                    </g>
                </g>
            </g>
        </g>
    </g>
</svg>