<?xml version="1.0" encoding="UTF-8"?>
<svg width="52px" height="52px" viewBox="0 0 52 52" version="1.1" xmlns="http://www.w3.org/2000/svg" xmlns:xlink="http://www.w3.org/1999/xlink">
    <title>BF66FFFC-FCBB-4CC2-B126-5D8AE72AA405</title>
    <g id="Login" stroke="none" stroke-width="1" fill="none" fill-rule="evenodd">
        <g id="MA_Account_LogIn" transform="translate(-604.000000, -1396.000000)">
            <g id="Contact-Us" transform="translate(456.000000, 1270.000000)">
                <g id="Button/Primery/Default" transform="translate(148.000000, 126.000000)">
                    <circle id="Oval" fill="#000000" cx="26" cy="26" r="26"></circle>
                    <g id="Phone" transform="translate(13.000000, 13.000000)">
                        <rect id="Rectangle" x="0" y="0" width="26" height="26"></rect>
                        <path d="M7.42816454,13.0925501 C8.60282013,15.4940445 10.5494543,17.4318342 12.9562731,18.5955415 C13.3145402,18.7653127 13.7358016,18.7334405 14.0644473,18.5116984 L17.6083158,16.1485683 C17.926741,15.936236 18.3308719,15.8991102 18.6826532,16.0498735 L25.3125604,18.8912622 C25.7752383,19.0877977 26.05217,19.5666341 25.9917787,20.0656831 C25.5582422,23.458105 22.6711889,26 19.2511772,26 C8.61904575,26 2.17625029e-07,17.3809545 2.17625029e-07,6.74882299 C2.17625029e-07,3.32881132 2.54189524,0.441758018 5.93431708,0.00822152958 C6.43336125,-0.0521708511 6.91219475,0.224753569 7.10873514,0.687424288 L9.95260252,7.32311674 C10.1020057,7.67172444 10.0669708,8.0719787 9.85927536,8.38932902 L7.50434824,11.9875623 C7.28631478,12.3168356 7.25738298,12.7364699 7.42816454,13.0925501 Z" id="Path" stroke="#FFFFFF" stroke-linecap="round" stroke-linejoin="round"></path>
                    </g>
                </g>
            </g>
        </g>
    </g>
</svg>