<?xml version="1.0" encoding="UTF-8"?>
<svg width="27px" height="28px" viewBox="0 0 27 28" version="1.1" xmlns="http://www.w3.org/2000/svg" xmlns:xlink="http://www.w3.org/1999/xlink">
    <title>B37CFA00-D46E-43BE-8082-46F2310C664D</title>
    <g id="Login" stroke="none" stroke-width="1" fill="none" fill-rule="evenodd">
        <g id="MA_Account_LogIn" transform="translate(-108.000000, -799.000000)">
            <g id="Button/Primery/Default" transform="translate(80.000000, 789.000000)">
                <rect id="Button-bg" fill="#4C69A8" x="0" y="0" width="263" height="48" rx="24"></rect>
                <g id="Icon/16px/Caret/Down" transform="translate(28.000000, 10.500000)" fill="#FFFFFF">
                    <path d="M17.1658815,14.4830017 L17.6031725,11.4520605 L14.8677242,11.4520605 L14.8677242,9.48516724 C14.8677242,8.65595215 15.2498306,7.84769897 16.4750516,7.84769897 L17.71875,7.84769897 L17.71875,5.26730713 C17.71875,5.26730713 16.59004,5.0625 15.5109651,5.0625 C13.2580096,5.0625 11.7855433,6.51407959 11.7855433,9.14199829 L11.7855433,11.4520605 L9.28125,11.4520605 L9.28125,14.4830017 L11.7855433,14.4830017 L11.7855433,21.8101135 C12.2876916,21.8938623 12.802365,21.9375 13.3266492,21.9375 C13.8509334,21.9375 14.3655758,21.8938623 14.8677242,21.8101135 L14.8677242,14.4830017 L17.1658815,14.4830017 L17.1658815,14.4830017 Z" id="Path"></path>
                </g>
            </g>
        </g>
    </g>
</svg>