<?xml version="1.0" encoding="UTF-8"?>
<svg width="40px" height="40px" viewBox="0 0 40 40" version="1.1" xmlns="http://www.w3.org/2000/svg" xmlns:xlink="http://www.w3.org/1999/xlink">
    <title>6A94E2BB-8799-4FA4-AD40-8F86994B14DB</title>
    <g id="Cart" stroke="none" stroke-width="1" fill="none" fill-rule="evenodd">
        <g id="CA_Cart" transform="translate(-487.000000, -309.000000)">
            <rect fill="#FFFFFF" x="0" y="0" width="1440" height="4210"></rect>
            <g id="Notification-Message" transform="translate(60.000000, 284.000000)">
                <rect id="Rectangle" fill="#007E30" opacity="0.1" x="0" y="0" width="1320" height="90"></rect>
                <g id="Icon/-Back-to-Previous" transform="translate(427.000000, 25.000000)">
                    <g id="Group-14" transform="translate(3.952856, 11.670888)" fill="#000000" fill-rule="nonzero">
                        <path d="M2.8182796,11.0502031 L7.7443139,11.0502031 L7.7443139,13.3235966 C7.7443139,13.5925673 7.95474461,13.8106271 8.21444506,13.8106271 C8.47414551,13.8106271 8.68457622,13.5925673 8.68457622,13.3235966 L8.68457622,10.5631725 L8.68457622,6.44503726 C8.68457622,6.17606653 8.47414551,5.95800673 8.21444506,5.95800673 L3.71221833,5.95800673 C3.49232231,5.95800673 3.30176248,6.1159345 3.25355837,6.33815029 L2.35961964,10.4562856 C2.32827756,10.6006414 2.36200164,10.7518806 2.45120119,10.8674043 C2.54040074,10.9829279 2.67548509,11.0502031 2.8182796,11.0502031 Z M4.08838594,6.93206778 L7.7443139,6.93206778 L7.7443139,10.076142 L3.40588087,10.076142 L4.08838594,6.93206778 Z" id="Shape"></path>
                        <path d="M8.06425383,17.8629808 C7.81226352,17.9259701 7.65680682,18.189616 7.71823729,18.4506643 C7.73578886,18.5253424 7.74456464,18.6026179 7.74456464,18.6805427 C7.74324827,19.2169257 7.32144659,19.6539544 6.80430232,19.6546038 C6.2865312,19.6539544 5.86466684,19.2169257 5.86341315,18.6805427 C5.86466684,18.1448092 6.2865312,17.7077805 6.80430232,17.7071311 C7.06318788,17.7071311 7.27380664,17.488292 7.27380664,17.2201006 C7.27380664,16.9512597 7.06318788,16.73307 6.80430232,16.73307 C5.76474829,16.73307 4.92440451,17.6027767 4.92315083,18.6805427 C4.92440451,19.7582439 5.76387072,20.6286648 6.80430232,20.6286648 C7.84141166,20.6286648 8.68420012,19.7603868 8.68420012,18.6805427 C8.68420012,18.5253424 8.66664855,18.3714407 8.63217227,18.2220847 C8.57049106,17.9585038 8.31611876,17.7999916 8.06425383,17.8629808 L8.06425383,17.8629808 Z" id="Path"></path>
                        <path d="M24.1565927,17.849344 C24.1195464,17.849344 24.0825627,17.8538896 24.0455791,17.8629808 C23.7935888,17.9259701 23.6387589,18.189616 23.6995626,18.4506643 C23.7164873,18.5259917 23.7258899,18.6032672 23.7258899,18.6811921 C23.7245735,19.2169257 23.3027719,19.6539544 22.7856276,19.6552532 C22.2677938,19.6539544 21.8459921,19.2169257 21.8453653,18.6811921 C21.8459921,18.1448092 22.2677938,17.7077805 22.7856276,17.7064817 C23.0445131,17.7064817 23.2557587,17.488292 23.2557587,17.2201006 C23.2557587,16.9512597 23.0445131,16.73307 22.7856276,16.73307 C22.282838,16.73307 21.810889,16.9356747 21.4554071,17.3032204 C21.1006775,17.6714155 20.9051029,18.1603942 20.9051029,18.6811921 C20.9051029,19.2013407 21.1006775,19.6903194 21.4554071,20.0585144 C21.810889,20.4260601 22.282838,20.6286648 22.7856276,20.6286648 C23.2877277,20.6286648 23.7597393,20.4260601 24.1151585,20.0585144 C24.4699508,19.6903194 24.6654627,19.2013407 24.6654627,18.6811921 C24.6654627,18.5253424 24.6479738,18.3707913 24.6134975,18.2220847 C24.5621592,18.0025963 24.3741067,17.849344 24.1565927,17.849344 Z" id="Path"></path>
                        <path d="M31.6241561,9.14045899 L29.5869211,9.14045899 L29.5869211,7.39247397 L30.3704103,7.39247397 C30.6301108,7.39247397 30.8405415,7.17441417 30.8405415,6.90544345 C30.8405415,6.63647272 30.6301108,6.41841292 30.3704103,6.41841292 L29.5869211,6.41841292 L29.5869211,4.67042791 L30.9972518,4.67042791 C31.2569523,4.67042791 31.467383,4.45236811 31.467383,4.18339738 C31.467383,3.91442666 31.2569523,3.69636686 30.9972518,3.69636686 L29.5869211,3.69636686 L29.5869211,1.94844678 L31.6241561,1.94844678 C31.8838565,1.94844678 32.0942872,1.73038698 32.0942872,1.46141626 C32.0942872,1.19244553 31.8838565,0.974385733 31.6241561,0.974385733 L29.5051182,0.974385733 C29.4359149,0.771456349 29.3247132,0.584956127 29.1738325,0.42858686 C28.9074248,0.152602897 28.5532593,0.000649374031 28.1765276,0 L11.0355454,0 C10.6581242,0.000649374031 10.3040214,0.152602897 10.0382405,0.42858686 C9.77183289,0.70392145 9.62515196,1.07081778 9.62452512,1.46109157 L9.62452512,4.00988464 L3.82436028,4.00988464 C2.716982,4.00988464 1.7738989,4.7916011 1.5309978,5.9107323 L0.819281903,9.18916204 C0.629223546,10.0650377 0.532815316,10.964226 0.532815316,11.8618557 L0.532815316,16.3433157 C0.218078174,16.5009838 0,16.8340477 0,17.2198408 L0,18.1939019 C0,18.7309991 0.421801677,19.1679629 0.940262322,19.1679629 L3.07340411,19.1679629 C3.3056489,21.0871878 4.88948944,22.5771766 6.80405158,22.5771766 C8.71861372,22.5771766 10.3024543,21.0871878 10.5346991,19.1679629 L19.0548547,19.1679629 C19.2870995,21.0871878 20.8709401,22.5771766 22.7855022,22.5771766 C24.7021329,22.5771766 26.2873525,21.083941 26.5169019,19.1617289 C27.2352623,19.0949733 27.8002973,18.4681325 27.8002973,17.7068713 L27.8002973,13.8103025 L28.1765903,13.8103025 C28.553322,13.8103025 28.9074875,13.6583489 29.1738952,13.3830143 C29.3247759,13.2263204 29.4359149,13.0396903 29.5051809,12.8365661 L30.9973145,12.8365661 C31.257015,12.8365661 31.4674457,12.6185063 31.4674457,12.3495356 C31.4674457,12.0805648 31.257015,11.862505 30.9973145,11.862505 L29.5869211,11.862505 L29.5869211,10.11452 L31.6241561,10.11452 C31.8838565,10.11452 32.0942872,9.89646023 32.0942872,9.62748951 C32.0942872,9.35851878 31.8838565,9.14045899 31.6241561,9.14045899 Z M1.73666451,9.40287103 L2.4483804,6.12437636 C2.59412106,5.45285868 3.15997093,4.98388075 3.82436028,4.98388075 L9.62452512,4.98388075 L9.62452512,13.3238564 C9.62452512,13.3259344 9.62483854,13.3280124 9.62483854,13.3300904 L9.62483854,16.1079177 C8.93512479,15.2974339 7.92659942,14.7846882 6.80405158,14.7846882 C5.66219702,14.7846882 4.58402955,15.3266558 3.87162414,16.2457798 L1.47307764,16.2457798 L1.47307764,11.8619206 C1.47307764,11.0360467 1.56177572,10.2087442 1.73666451,9.40287103 Z M0.940262322,17.2198408 L3.317935,17.2198408 C3.19557553,17.5315403 3.1133966,17.8584352 3.07277727,18.1939019 L0.940262322,18.1939019 L0.940262322,17.2198408 Z M6.80405158,21.6031155 C5.24866965,21.6031155 3.98326461,20.2922242 3.98326461,18.6809324 C3.98326461,17.0575622 5.26578242,15.7587492 6.80405158,15.7587492 C8.35943351,15.7587492 9.62483854,17.0696406 9.62483854,18.6809324 C9.62483854,20.2922242 8.35943351,21.6031155 6.80405158,21.6031155 Z M22.7854395,21.6031155 C21.2300576,21.6031155 19.9646526,20.2922242 19.9646526,18.6809324 C19.9646526,17.0696406 21.2300576,15.7587492 22.7854395,15.7587492 C24.3408215,15.7587492 25.6062265,17.0696406 25.6062265,18.6809324 C25.6062265,20.2922242 24.3408841,21.6031155 22.7854395,21.6031155 Z M28.1765276,12.8368258 L11.9758078,12.8368258 C11.7162954,12.8368258 11.5050498,13.0550155 11.5050498,13.3238564 C11.5050498,13.5920478 11.7162954,13.8102375 11.9751809,13.8102375 L26.8599723,13.8102375 L26.8599723,17.7068064 C26.8599723,17.9308404 26.7130406,18.1194836 26.513893,18.176109 C26.2740635,16.2654558 24.6941093,14.7846233 22.7855022,14.7846233 C20.8710028,14.7846233 19.2870995,16.274612 19.0548547,18.1938369 L10.5651009,18.1938369 L10.5651009,13.3235317 L10.5647874,13.3235317 L10.5647874,1.46109157 C10.5654143,1.19354947 10.7766599,0.97471042 11.0355454,0.974061046 L28.1765276,0.974061046 C28.434849,0.97471042 28.6450289,1.19264035 28.6467214,1.4594032 C28.6467214,1.46005257 28.6465334,1.46070195 28.6465334,1.46141626 C28.6465334,1.462715 28.6467214,1.46388388 28.6467214,1.46518263 L28.6467214,4.17963101 C28.6467214,4.18092976 28.6465334,4.18216357 28.6465334,4.18339738 C28.6465334,4.18463119 28.6467214,4.185865 28.6467214,4.18716375 L28.6467214,6.90167708 C28.6467214,6.90297582 28.6465334,6.90420963 28.6465334,6.90544345 C28.6465334,6.90667726 28.6467214,6.90791107 28.6467214,6.90920981 L28.6467214,9.62372314 C28.6467214,9.62502189 28.6465334,9.6262557 28.6465334,9.62748951 C28.6465334,9.62872332 28.6467214,9.62995713 28.6467214,9.63125588 L28.6467214,12.3457043 C28.6467214,12.347003 28.6465334,12.3482368 28.6465334,12.3494706 C28.6465334,12.3500551 28.6467214,12.3505746 28.6467214,12.351159 C28.6448409,12.6184414 28.4347863,12.8362414 28.1765276,12.8368258 L28.1765276,12.8368258 Z" id="Shape"></path>
                        <g id="Group-11" transform="translate(13.790953, 4.957516)">
                            <path d="M1.9115533,6.49374032e-05 L0.470005792,6.49374032e-05 C0.210430708,6.49374032e-05 0,0.217994862 0,0.486965586 L0,3.40882404 C0,3.6778597 0.210430708,3.89585456 0.470005792,3.89585456 C0.729580877,3.89585456 0.940074269,3.67792464 0.940074269,3.40882404 L0.940074269,2.43489287 L1.53551106,2.43489287 C1.79514882,2.43489287 2.00551685,2.21696294 2.00551685,1.94786234 C2.00551685,1.67889162 1.79514882,1.46089676 1.53551106,1.46089676 L0.940074269,1.46089676 L0.940074269,0.973866234 L1.9115533,0.973866234 C2.17119107,0.973866234 2.38155909,0.755936309 2.38155909,0.486835711 C2.38155909,0.217994862 2.17119107,6.49374032e-05 1.9115533,6.49374032e-05 Z" id="Path"></path>
                            <path d="M5.76650345,1.46102663 C5.76650345,0.655543084 5.13740527,0.000129874806 4.36419622,0.000129874806 L3.44744046,0.000129874806 C3.18786537,0.000129874806 2.97743467,0.2180598 2.97743467,0.487030523 L2.97743467,3.40888898 C2.97743467,3.67792464 3.18786537,3.8959195 3.44744046,3.8959195 C3.70701554,3.8959195 3.91750894,3.67798957 3.91750894,3.40888898 L3.91750894,2.92198833 L4.16824556,2.92198833 L4.96257916,3.7518234 C5.05447414,3.84786582 5.17545455,3.8959195 5.29637229,3.8959195 C5.41603634,3.8959195 5.53563771,3.84883988 5.62740731,3.75474558 C5.81163604,3.56538812 5.81288972,3.25700039 5.6302281,3.06608442 L5.20899058,2.62613352 C5.54742233,2.35904598 5.76650345,1.93623855 5.76650345,1.46102663 L5.76650345,1.46102663 Z M4.36419622,1.94786234 L3.91750894,1.94786234 L3.91750894,0.973931172 L4.36419622,0.973931172 C4.61894463,0.973931172 4.82630381,1.1923806 4.82630381,1.46096169 C4.82630381,1.72947786 4.61894463,1.94786234 4.36419622,1.94786234 Z" id="Shape"></path>
                            <path d="M8.43026661,0.973931172 C8.68990438,0.973931172 8.9002724,0.756001247 8.9002724,0.486900648 C8.9002724,0.217929925 8.68990438,0 8.43026661,0 L6.9887191,0 C6.72914401,0 6.51871331,0.217929925 6.51871331,0.486900648 L6.51871331,3.4087591 C6.51871331,3.67779476 6.72914401,3.89578962 6.9887191,3.89578962 L8.43026661,3.89578962 C8.68990438,3.89578962 8.9002724,3.6778597 8.9002724,3.4087591 C8.9002724,3.13978838 8.68990438,2.92179351 8.43026661,2.92179351 L7.45878758,2.92179351 L7.45878758,2.43482793 L8.05422436,2.43482793 C8.31386213,2.43482793 8.52423015,2.216898 8.52423015,1.94779741 C8.52423015,1.67882668 8.31386213,1.46083182 8.05422436,1.46083182 L7.45878758,1.46083182 L7.45878758,0.973801297 L8.43026661,0.973801297 L8.43026661,0.973931172 Z" id="Path"></path>
                            <path d="M11.3768607,0.973931172 C11.6364984,0.973931172 11.8468665,0.756001247 11.8468665,0.486900648 C11.8468665,0.217929925 11.6364984,0 11.3768607,0 L9.93531316,0 C9.67573808,0 9.46530737,0.217929925 9.46530737,0.486900648 L9.46530737,3.4087591 C9.46530737,3.67779476 9.67573808,3.89578962 9.93531316,3.89578962 L11.3768607,3.89578962 C11.6364984,3.89578962 11.8468665,3.6778597 11.8468665,3.4087591 C11.8468665,3.13978838 11.6364984,2.92179351 11.3768607,2.92179351 L10.4053816,2.92179351 L10.4053816,2.43482793 L11.0008184,2.43482793 C11.2604562,2.43482793 11.4708242,2.216898 11.4708242,1.94779741 C11.4708242,1.67882668 11.2604562,1.46083182 11.0008184,1.46083182 L10.4053816,1.46083182 L10.4053816,0.973801297 L11.3768607,0.973801297 L11.3768607,0.973931172 Z" id="Path"></path>
                        </g>
                    </g>
                    <circle id="Oval" fill="#000000" cx="32.2187494" cy="9.9204973" r="6.00784302"></circle>
                    <polyline id="Path-178" stroke="#FFFFFF" stroke-width="0.5" points="29.119445 10.2887969 30.8123307 11.9231116 34.5902288 8.27592245"></polyline>
                </g>
            </g>
        </g>
    </g>
</svg>