<?xml version="1.0" encoding="UTF-8"?>
<svg width="32px" height="32px" viewBox="0 0 32 32" version="1.1" xmlns="http://www.w3.org/2000/svg" xmlns:xlink="http://www.w3.org/1999/xlink">
    <title>2E664897-55A5-4005-8C66-DFF9D15D3B65</title>
    <g id="Cart" stroke="none" stroke-width="1" fill="none" fill-rule="evenodd">
        <g id="CA_Cart" transform="translate(-953.000000, -766.000000)">
            <rect fill="#FFFFFF" x="0" y="0" width="1440" height="4210"></rect>
            <g id="Payment-section-left" transform="translate(923.000000, 434.000000)">
                <g id="Gift" transform="translate(0.000000, 302.000000)">
                    <rect id="Rectangle" fill="#F4F4F4" x="0" y="0" width="457" height="160"></rect>
                    <g id="Icon/24px/offer" transform="translate(30.000000, 30.000000)" fill="#000000" fill-rule="nonzero">
                        <path d="M27.5909091,5 L4.40909091,5 C2.52931818,5 1,6.52931818 1,8.40909091 L1,23.4090909 C1,25.2888636 2.52931818,26.8181818 4.40909091,26.8181818 L27.5909091,26.8181818 C29.4706818,26.8181818 31,25.2888636 31,23.4090909 L31,8.40909091 C31,6.52931818 29.4706818,5 27.5909091,5 Z M29.6363636,8.40909091 L29.6363636,13.5227273 L18.7272727,13.5227273 L18.7272727,11.1363636 C18.7272727,10.9209091 18.6253409,10.7177273 18.4525,10.5895455 C18.2789773,10.4610227 18.0556818,10.4218182 17.8494318,10.4831818 L13.5965909,11.7588636 C13.1384091,11.3146591 12.5575,10.99625 11.90875,10.8639773 L11.90875,6.36363636 L27.5905682,6.36363636 C28.7189773,6.36363636 29.6363636,7.28102273 29.6363636,8.40909091 Z M16.3565909,20.3409091 L14.4161364,20.3409091 L13.0998864,17.0501136 C13.2781818,16.9325 13.4442045,16.7981818 13.5969318,16.6502273 L15.0553409,17.0876136 L16.3565909,20.3409091 Z M11.2272727,12.1590909 C12.3553409,12.1590909 13.2727273,13.0764773 13.2727273,14.2045455 C13.2727273,15.3326136 12.3553409,16.25 11.2272727,16.25 C10.0992045,16.25 9.18181818,15.3326136 9.18181818,14.2045455 C9.18181818,13.0764773 10.0992045,12.1590909 11.2272727,12.1590909 Z M8.06261364,15.4648864 L5.09090909,16.3563636 L5.09090909,12.0527273 L8.06261364,12.9442045 C7.90647727,13.3345455 7.81818182,13.7593182 7.81818182,14.2045455 C7.81818182,14.6497727 7.90647727,15.0745455 8.06261364,15.4648864 L8.06261364,15.4648864 Z M7.39920455,17.0876136 L8.85761364,16.6502273 C9.01034091,16.7981818 9.17636364,16.9325 9.35465909,17.0501136 L8.03840909,20.3409091 L6.09795455,20.3409091 L7.39920455,17.0876136 Z M14.3919318,15.4648864 C14.5480682,15.0745455 14.6363636,14.6497727 14.6363636,14.2045455 C14.6363636,13.7593182 14.5480682,13.3345455 14.3919318,12.9442045 L17.3636364,12.0527273 L17.3636364,16.3560227 L14.3919318,15.4648864 Z M4.40909091,6.36363636 L10.5454545,6.36363636 L10.5454545,10.8643182 C9.89670455,10.9965909 9.31579545,11.315 8.85761364,11.7592045 L4.60511364,10.4835227 C4.39920455,10.4218182 4.17488636,10.4613636 4.00204545,10.5898864 C3.82920455,10.7177273 3.72727273,10.9209091 3.72727273,11.1363636 L3.72727273,13.5227273 L2.36363636,13.5227273 L2.36363636,8.40909091 C2.36363636,7.28102273 3.28102273,6.36363636 4.40909091,6.36363636 Z M2.36363636,23.4090909 L2.36363636,14.8863636 L3.72727273,14.8863636 L3.72727273,17.2727273 C3.72727273,17.4881818 3.82920455,17.6913636 4.00204545,17.8195455 C4.12102273,17.9081818 4.26420455,17.9545455 4.40909091,17.9545455 C4.47454545,17.9545455 4.54068182,17.9453409 4.60511364,17.9259091 L5.73045455,17.5884091 L4.45818182,20.7694318 C4.37397727,20.9794318 4.39988636,21.2173864 4.52670455,21.4048864 C4.65352273,21.5923864 4.86454545,21.7045455 5.09090909,21.7045455 L8.5,21.7045455 C8.77886364,21.7045455 9.02943182,21.5347727 9.13306818,21.2760227 L10.5454545,17.7448864 L10.5454545,25.4545455 L4.40909091,25.4545455 C3.28102273,25.4545455 2.36363636,24.5371591 2.36363636,23.4090909 Z M27.5909091,25.4545455 L11.9090909,25.4545455 L11.9090909,17.7448864 L13.3214773,21.2760227 C13.4251136,21.5347727 13.6756818,21.7045455 13.9545455,21.7045455 L17.3636364,21.7045455 C17.59,21.7045455 17.8013636,21.5923864 17.9281818,21.4048864 C18.055,21.2173864 18.0805682,20.9794318 17.9967045,20.7694318 L16.7240909,17.5884091 L17.8494318,17.9259091 C17.9138636,17.9453409 17.98,17.9545455 18.0454545,17.9545455 C18.1903409,17.9545455 18.3335227,17.9081818 18.4525,17.8195455 C18.6253409,17.6913636 18.7272727,17.4881818 18.7272727,17.2727273 L18.7272727,14.8863636 L29.6363636,14.8863636 L29.6363636,23.4090909 C29.6363636,24.5371591 28.7189773,25.4545455 27.5909091,25.4545455 L27.5909091,25.4545455 Z" id="Gift_Card"></path>
                    </g>
                </g>
            </g>
        </g>
    </g>
</svg>