<?xml version="1.0" encoding="UTF-8"?>
<svg width="24px" height="24px" viewBox="0 0 24 24" version="1.1" xmlns="http://www.w3.org/2000/svg" xmlns:xlink="http://www.w3.org/1999/xlink">
    <title>EE1F61F3-7809-4877-8DF3-CD86D929103A</title>
    <g id="Home-Page-+" stroke="none" stroke-width="1" fill="none" fill-rule="evenodd">
        <g id="Home-Page-" transform="translate(-1336.000000, -6141.000000)">
            <rect fill="#FFFFFF" x="0" y="0" width="1440" height="6225"></rect>
            <g id="Footer" transform="translate(0.000000, 5745.000000)">
                <g id="Icon/16px/Call" transform="translate(0.000000, 2.455933)" fill="#000000">
                    <rect id="Rectangle" x="0" y="0" width="1440" height="480"></rect>
                </g>
                <g id="Social-Media" transform="translate(1150.000000, 396.000000)">
                    <g id="Icon/Social/Instagram" transform="translate(186.000000, 0.000000)">
                        <rect id="Rectangle" x="0" y="0" width="24" height="24"></rect>
                        <path d="M13.0595769,4.00063501 C14.191078,4.00358698 15.2747468,4.01988321 15.9289778,4.05040159 C18.9403513,4.18906765 20.4477047,5.89239355 20.5797065,8.70104794 C20.6450407,10.1743748 20.6490408,13.8196922 20.5797065,15.2923525 C20.4703717,17.6716754 19.3516901,18.9963363 17.8696703,19.5716671 C16.857514,19.9635225 15.8677763,19.9897877 13.2633608,19.9915406 L12.3144343,19.9923495 C9.47869949,20.0038668 7.46969819,20.1385218 5.98017831,18.6496711 C4.78954337,17.4590573 4.64141554,15.9535979 4.6326042,13.8535772 L4.63297665,13.2658929 C4.63462293,12.8639957 4.6381604,12.441603 4.6381604,11.9970335 C4.6381604,8.95638016 4.44149111,6.88305588 5.98017831,5.34439594 C6.90085726,4.4237333 8.0428725,4.111068 9.33755645,4.05040159 C9.99238001,4.02136468 11.076378,4.00457463 12.207945,4.00090935 L13.0595769,4.00063501 Z M12.6042667,5.42106227 L12.107654,5.42127639 C10.4204089,5.42286782 10.1454561,5.43356222 9.36689018,5.4610621 C6.36330842,5.61489476 6.04967924,7.39490521 6.03766296,10.0326474 L6.03787179,10.4451174 C6.04014005,10.9339855 6.04817922,11.4492165 6.04817922,11.9863669 C6.04817922,14.708355 5.84484317,16.5036805 6.96819149,17.6216756 C7.81349167,18.4692719 8.93019694,18.5452301 11.382863,18.5504173 L12.6136002,18.5503382 C12.9485012,18.5503382 13.2637325,18.5513014 13.5608964,18.5519117 L14.1316091,18.5522722 C16.3218986,18.5487132 17.4242391,18.4664306 18.2590089,17.6316756 C19.085131,16.8016792 19.1792989,15.7295543 19.1881262,13.4886073 L19.1881621,11.5004667 C19.1880959,11.4238723 19.1880117,11.3501865 19.187908,11.2792307 L19.1870392,10.8848239 C19.1834703,9.73054691 19.171771,9.43268363 19.1416873,8.76504766 C19.0057272,5.76206078 17.1401345,5.44457779 14.5397232,5.43109543 L14.1339967,5.43109847 C13.8141313,5.43246666 13.4844751,5.43643892 13.1467326,5.43893506 L12.6342671,5.44106218 L12.6042667,5.42106227 Z M12.0375132,8.14834651 C14.1642537,8.14834651 15.8894155,9.8716318 15.8894155,12.0002488 C15.8894155,14.1269893 14.1661302,15.8521511 12.0375132,15.8521511 C9.91077272,15.8521511 8.1856109,14.1288658 8.1856109,12.0002488 C8.1856109,9.87350834 9.90889619,8.14834651 12.0375132,8.14834651 Z M12.0375132,9.50007773 C10.6563829,9.50007773 9.53734212,10.6191185 9.53734212,12.0002488 C9.53734212,13.3813791 10.6557574,14.5004199 12.0375132,14.5004199 C13.419269,14.5004199 14.5383098,13.3813791 14.5376845,12.0002488 C14.5376845,10.6191185 13.4186435,9.50007773 12.0375132,9.50007773 Z M16.4820158,6.37054545 C17.1365841,6.37054545 17.6672165,6.90117788 17.6672165,7.55574616 C17.6672165,8.21031443 17.1365841,8.74094686 16.4820158,8.74094686 C15.8274476,8.74094686 15.2968151,8.21031443 15.2968151,7.55574616 C15.2968151,6.90117788 15.8274476,6.37054545 16.4820158,6.37054545 Z" id="Combined-Shape" fill="#FFFFFF" fill-rule="nonzero"></path>
                    </g>
                </g>
            </g>
        </g>
    </g>
</svg>