<?xml version="1.0" encoding="UTF-8"?>
<svg width="196px" height="30px" viewBox="0 0 196 30" version="1.1" xmlns="http://www.w3.org/2000/svg" xmlns:xlink="http://www.w3.org/1999/xlink">
    <title>0DE0191D-EDF3-4963-989C-DBA681A32C82</title>
    <g id="Home-Page-+" stroke="none" stroke-width="1" fill="none" fill-rule="evenodd">
        <g id="Home-Page-" transform="translate(-80.000000, -67.000000)">
            <g id="Brand-Main-Menu-Bar-" transform="translate(80.000000, 62.000000)">
                <g id="RT_Logo/Default" transform="translate(0.000000, 5.000000)">
                    <path d="M196,26 C196,28.2095748 194.209874,30 192.000669,30 C189.791464,30 188,28.2095748 188,26 C188,23.7904252 189.791464,22 192.000669,22 C194.209874,22 196,23.7904252 196,26" id="Fill-1" fill="#E60028"></path>
                    <path d="M168.290791,30 C158.830744,30 153,23.5553665 153,15.2449252 C153,6.53336575 159.75,0 169.851767,0 C173.708372,0 176.555302,0.756047162 178.760512,1.51209432 L178.668837,6.53336575 C176.373209,5.37741583 173.571488,4.44390422 170.40307,4.44390422 C162.458791,4.44390422 159.060558,9.15522062 159.060558,14.8000486 C159.060558,20.9335116 163.055302,25.5560958 169.668419,25.5560958 C171.687767,25.5560958 173.341674,25.2437097 174.443023,24.7562903 L174.443023,14.8000486 L180,14.8000486 L180,27.244439 C177.244744,28.7115595 173.158326,30 168.290791,30" id="Fill-3" fill="#000000"></path>
                    <polygon id="Fill-5" fill="#000000" points="115 0 113.304692 4.59785857 105.786737 4.59785857 105.786737 30 100.406606 30 100.406606 4.59785857 92 4.59785857 92 0"></polygon>
                    <path d="M69.8504356,0 L61,0 L61,30 L69.4958858,30 C79.8056631,30 86,23.7176295 86,14.749751 C86,5.96364542 80.4252178,0 69.8504356,0 M69.7621007,25.3573207 L66.3545499,25.3573207 L66.3545499,4.64267928 L69.7173282,4.64267928 C76.7962246,4.64267928 80.2921104,8.83217131 80.2921104,14.8406375 C80.2921104,20.3946713 77.4169894,25.3573207 69.7621007,25.3573207" id="Fill-7" fill="#000000"></path>
                    <polygon id="Fill-9" fill="#000000" points="47 0 45.4037559 4.59785857 36.9452269 4.59785857 36.9452269 12.3817231 45.4037559 12.3817231 45.4037559 16.9808267 36.9452269 16.9808267 36.9452269 25.4021414 47 25.4021414 47 30 32 30 32 0"></polygon>
                    <path d="M13.1193679,16.3894422 L13.1193679,16.3433765 C15.914369,15.1593625 18.6193679,12.4738546 18.6193679,8.4686255 C18.6193679,3.86952191 15.7343645,0 8.0249944,0 L0,0 L0,30 L5.45561533,30 L5.45561533,18.1648406 L7.98060973,18.1648406 C9.10748711,18.5283865 11.1812374,22.2622012 15.7799821,30 L22,30 C17.4468729,22.3518426 14.4718673,17.1625996 13.1193679,16.3894422 M8.20499888,13.9765936 L5.45561533,13.9765936 L5.45561533,4.6439243 L8.16061421,4.6439243 C11.5412464,4.6439243 13.1193679,6.64716135 13.1193679,9.10483068 C13.1193679,11.8364044 11,13.9765936 8.20499888,13.9765936" id="Fill-11" fill="#000000"></path>
                    <path d="M135.252132,0 L131.348356,0 L120,30 L125.275274,30 L127.980512,22.5236554 L138.399513,22.5236554 L141.280146,30 L147,30 L135.252132,0 Z M129.621194,18.0366036 C129.621194,18.0366036 133.035323,8.51967131 133.211937,7.47883466 L133.255786,7.47883466 C133.477467,8.4748506 136.713764,18.0366036 136.713764,18.0366036 L129.621194,18.0366036 Z" id="Fill-13" fill="#000000"></path>
                </g>
            </g>
        </g>
    </g>
</svg>