<?xml version="1.0" encoding="UTF-8"?>
<svg width="32px" height="32px" viewBox="0 0 32 32" version="1.1" xmlns="http://www.w3.org/2000/svg" xmlns:xlink="http://www.w3.org/1999/xlink">
    <title>888EBE99-50DE-4688-B354-D2FE213CA9D6</title>
    <g id="Cart" stroke="none" stroke-width="1" fill="none" fill-rule="evenodd">
        <g id="CA_Cart" transform="translate(-953.000000, -464.000000)">
            <rect fill="#FFFFFF" x="0" y="0" width="1440" height="4210"></rect>
            <g id="offer-&amp;-promo" transform="translate(923.000000, 434.000000)">
                <rect id="Rectangle" fill="#F4F4F4" x="0" y="0" width="457" height="102"></rect>
                <g id="Icon/24px/offer" transform="translate(30.000000, 30.000000)" fill="#000000" fill-rule="nonzero">
                    <path d="M14.1051771,1.73978887 C15.1676946,0.753374412 16.8323054,0.753433005 17.894884,1.73978887 L17.894884,1.73978887 L19.8032021,3.5111748 C20.0090496,3.70224682 20.2896398,3.78978488 20.5734052,3.75134782 L20.5734052,3.75134782 L23.2024033,3.39451598 C24.6659296,3.19582685 26.0128843,4.13472233 26.268316,5.53193286 L26.268316,5.53193286 L26.7270305,8.04141578 C26.7765535,8.31205721 26.950037,8.54127333 27.2030872,8.67006091 L27.2030872,8.67006091 L29.5485641,9.86418783 C30.8544836,10.5290435 31.3688887,12.048069 30.7196538,13.3225271 L30.7196538,13.3225271 L29.5535714,15.6114656 C29.4277791,15.8583769 29.4277791,16.1416158 29.5535714,16.3885856 L29.5535714,16.3885856 L30.7196538,18.6775242 C31.3688887,19.9519822 30.8544836,21.471125 29.5485641,22.135922 L29.5485641,22.135922 L27.2030872,23.3300489 C26.9500981,23.4588951 26.7766146,23.6880526 26.7270915,23.9587527 L26.7270915,23.9587527 L26.268316,26.4681184 C26.0128843,27.8653289 24.6666013,28.804283 23.2024033,28.6055353 L23.2024033,28.6055353 L20.5734052,28.2487034 C20.2897619,28.2105007 20.0091107,28.2978044 19.8032021,28.4888765 L19.8032021,28.4888765 L17.8948229,30.2602624 C17.3636863,30.7533817 16.68166,31 16,31 C15.3181569,31 14.636558,30.7534989 14.1051771,30.2602624 L14.1051771,30.2602624 L12.1968589,28.4888765 C11.9909504,28.2978044 11.7101771,28.2100906 11.4266559,28.2487034 L11.4266559,28.2487034 L8.79765773,28.6055353 C8.66643071,28.6233476 8.53587539,28.6320193 8.40721307,28.6320193 C7.10086608,28.6321365 5.96421658,27.7401155 5.731684,26.468177 L5.731684,26.468177 L5.27296954,23.9586941 C5.22344645,23.6880526 5.04996299,23.4588365 4.79691283,23.3300489 L4.79691283,23.3300489 L2.45143591,22.135922 C1.14551637,21.4710664 0.631111332,19.9520408 1.28034618,18.6775828 L1.28034618,18.6775828 L2.44642864,16.3887028 C2.57222095,16.1417916 2.57222095,15.8585526 2.44642864,15.6115828 L2.44642864,15.6115828 L1.28040725,13.3227028 C0.631172396,12.0482448 1.14557744,10.5291021 2.45149697,9.86430502 L2.45149697,9.86430502 L4.7969739,8.6701781 C5.04996299,8.54133192 5.22344645,8.31217439 5.27296954,8.04147438 L5.27296954,8.04147438 L5.731684,5.53210864 C5.98711566,4.13489811 7.33358185,3.19588545 8.79759667,3.39469176 L8.79759667,3.39469176 L11.4265948,3.7515236 C11.7102992,3.78984348 11.9908893,3.7024812 12.1967979,3.51135058 L12.1967979,3.51135058 Z M16.6409912,2.98348554 C16.281445,2.64985656 15.7182497,2.64985656 15.3588256,2.98348554 L15.3588256,2.98348554 L13.4504464,4.75487146 C12.8419414,5.31965014 12.0120175,5.57845576 11.173911,5.46460941 L11.173911,5.46460941 L8.5449129,5.10777757 C8.04949883,5.0406299 7.59408184,5.35820438 7.50761489,5.83093333 L7.50761489,5.83093333 L7.04890042,8.34035766 C6.9026516,9.14050473 6.38977317,9.81772352 5.64198066,10.1985199 L5.64198066,10.1985199 L3.29650373,11.3926469 C2.85464299,11.6175857 2.68060995,12.1315056 2.90025797,12.562692 L2.90025797,12.562692 L4.06634043,14.8516306 C4.43809944,15.581466 4.43809944,16.4185267 4.06634043,17.1483621 L4.06634043,17.1483621 L2.90025797,19.4373006 C2.68060995,19.8684871 2.85464299,20.382407 3.29650373,20.6073458 L3.29650373,20.6073458 L5.64198066,21.8014727 C6.38983423,22.182152 6.9026516,22.8594293 7.04896149,23.6595764 L7.04896149,23.6595764 L7.50773702,26.1690593 C7.59420396,26.6417883 8.05004841,26.9593628 8.54503503,26.8922151 L8.54503503,26.8922151 L11.1740332,26.5353833 C11.3038557,26.5177467 11.433495,26.509075 11.5620963,26.509075 C12.2639685,26.509075 12.9362857,26.7677634 13.4505686,27.2451212 L13.4505686,27.2451212 L15.3588867,29.0165071 C15.7184329,29.3501361 16.2816282,29.3501361 16.6410522,29.0165071 L16.6410522,29.0165071 L18.5494314,27.2451798 C19.1579365,26.6804011 19.987555,26.4214783 20.8259668,26.5354418 L20.8259668,26.5354418 L23.454965,26.8922737 C23.950379,26.9593628 24.4058571,26.6418469 24.492263,26.1691179 L24.492263,26.1691179 L24.9509774,23.6596936 C25.0972263,22.8595465 25.6101047,22.1823277 26.3578972,21.8015313 L26.3578972,21.8015313 L28.7033741,20.6074044 C29.1452349,20.3824656 29.3192679,19.8684871 29.0995588,19.4371835 L29.0995588,19.4371835 L27.9334764,17.1483035 C27.5617174,16.4185267 27.5617174,15.5813488 27.9334764,14.851572 L27.9334764,14.851572 L29.0995588,12.562692 C29.3192069,12.1315056 29.1451738,11.6175857 28.7033131,11.3926469 L28.7033131,11.3926469 L26.3578362,10.1985199 C25.6099826,9.81784071 25.0971652,9.14056333 24.9508553,8.34041626 L24.9508553,8.34041626 L24.4921409,5.83093333 C24.405735,5.35820438 23.9498905,5.04057131 23.4548428,5.10777757 L23.4548428,5.10777757 L20.8258447,5.46460941 C19.9876161,5.57845576 19.1578143,5.31970873 18.5493093,4.75487146 L18.5493093,4.75487146 Z M19.6063921,17.4419134 C21.4292814,17.4419134 22.9123483,18.8649635 22.9123483,20.614084 C22.9123483,22.3632046 21.4292814,23.7862546 19.6063921,23.7862546 C17.7835029,23.7862546 16.300436,22.3632046 16.300436,20.614084 C16.300436,18.8649635 17.7835029,17.4419134 19.6063921,17.4419134 Z M21.3127709,9.67868215 C21.6648672,9.34083447 22.2358177,9.34083447 22.587853,9.67868215 C22.9400104,10.0165884 22.9400104,10.5643165 22.5877919,10.9022228 L22.5877919,10.9022228 L10.6870459,22.3213691 C10.5110588,22.4903515 10.2802361,22.5747842 10.0495354,22.5747842 C9.81883478,22.5747842 9.58807307,22.490293 9.41202491,22.3213691 C9.05992858,21.9835214 9.05992858,21.4357347 9.41202491,21.0978871 L9.41202491,21.0978871 Z M19.6063921,19.1722256 C18.7777506,19.1722256 18.1036626,19.8190345 18.1036626,20.614084 C18.1036626,21.4091335 18.7778116,22.0559425 19.6063921,22.0559425 C20.4349726,22.0559425 21.1090606,21.4091335 21.1090606,20.614084 C21.1090606,19.8190345 20.4349726,19.1722256 19.6063921,19.1722256 Z M12.3934857,8.21385521 C14.216375,8.21385521 15.6994419,9.63690529 15.6994419,11.3860258 C15.6994419,13.1351464 14.216375,14.5581965 12.3934857,14.5581965 C10.5705965,14.5581965 9.08752961,13.1351464 9.08752961,11.3860258 C9.08752961,9.63690529 10.5705965,8.21385521 12.3934857,8.21385521 Z M12.3934857,9.94410879 C11.5649053,9.94410879 10.8908173,10.5909178 10.8908173,11.3859672 C10.8908173,12.1810753 11.5649053,12.8278843 12.3934857,12.8278843 C13.2220662,12.8278843 13.8961542,12.1810753 13.8962153,11.3859672 C13.8962153,10.5909178 13.2220662,9.94410879 12.3934857,9.94410879 Z" id="Combined-Shape"></path>
                </g>
            </g>
        </g>
    </g>
</svg>