<?xml version="1.0" encoding="UTF-8"?>
<svg width="24px" height="24px" viewBox="0 0 24 24" version="1.1" xmlns="http://www.w3.org/2000/svg" xmlns:xlink="http://www.w3.org/1999/xlink">
    <title>1BD60C4B-F569-45EC-817C-CC3603C22F76</title>
    <g id="Signup" stroke="none" stroke-width="1" fill="none" fill-rule="evenodd">
        <g id="Account_Signup" transform="translate(-990.000000, -469.000000)">
            <rect fill="#FFFFFF" x="0" y="0" width="1440" height="1701"></rect>
            <g id="LOYALTY-Card" transform="translate(960.000000, 284.000000)">
                <rect id="Rectangle" fill="#F4F4F4" x="0" y="0" width="400" height="367"></rect>
                <g id="Icon/24px/offer" transform="translate(30.000000, 185.000000)" fill="#000000" fill-rule="nonzero">
                    <path d="M10.5788828,1.30484166 C11.3757709,0.565030809 12.6242291,0.565074754 13.421163,1.30484166 L13.421163,1.30484166 L14.8524016,2.6333811 C15.0067872,2.77668512 15.2172298,2.84233866 15.4300539,2.81351087 L15.4300539,2.81351087 L17.4018025,2.54588699 C18.4994472,2.39687014 19.5096633,3.10104175 19.701237,4.14894964 L19.701237,4.14894964 L20.0452728,6.03106184 C20.0824152,6.23404291 20.2125278,6.405955 20.4023154,6.50254568 L20.4023154,6.50254568 L22.1614231,7.39814088 C23.1408627,7.89678262 23.5266665,9.03605177 23.0397404,9.99189529 L23.0397404,9.99189529 L22.1651785,11.7085992 C22.0708343,11.8937826 22.0708343,12.1062119 22.1651785,12.2914392 L22.1651785,12.2914392 L23.0397404,14.0081432 C23.5266665,14.9639867 23.1408627,16.1033437 22.1614231,16.6019415 L22.1614231,16.6019415 L20.4023154,17.4975367 C20.2125736,17.5941713 20.082461,17.7660395 20.0453186,17.9690645 L20.0453186,17.9690645 L19.701237,19.8510888 C19.5096633,20.8989967 18.499951,21.6032122 17.4018025,21.4541515 L17.4018025,21.4541515 L15.4300539,21.1865276 C15.2173214,21.1578756 15.006833,21.2233533 14.8524016,21.3666573 L14.8524016,21.3666573 L13.4211172,22.6951968 C13.0227647,23.0650363 12.511245,23.25 12,23.25 C11.4886176,23.25 10.9774185,23.0651242 10.5788828,22.6951968 L10.5788828,22.6951968 L9.1476442,21.3666573 C8.99321278,21.2233533 8.78263279,21.1575679 8.56999189,21.1865276 L8.56999189,21.1865276 L6.5982433,21.4541515 C6.49982303,21.4675107 6.40190655,21.4740145 6.3054098,21.4740145 C5.32564956,21.4741024 4.47316243,20.8050866 4.298763,19.8511327 L4.298763,19.8511327 L3.95472715,17.9690206 C3.91758484,17.7660395 3.78747224,17.5941274 3.59768462,17.4975367 L3.59768462,17.4975367 L1.83857693,16.6019415 C0.859137279,16.1032998 0.473333499,14.9640306 0.960259637,14.0081871 L0.960259637,14.0081871 L1.83482148,12.2915271 C1.92916571,12.1063437 1.92916571,11.8939145 1.83482148,11.7086871 L1.83482148,11.7086871 L0.960305435,9.99202713 C0.473379297,9.0361836 0.859183077,7.89682656 1.83862273,7.39822877 L1.83862273,7.39822877 L3.59773042,6.50263357 C3.78747224,6.40599894 3.91758484,6.2341308 3.95472715,6.03110578 L3.95472715,6.03110578 L4.298763,4.14908148 C4.49033675,3.10117358 5.50018639,2.39691409 6.5981975,2.54601882 L6.5981975,2.54601882 L8.56994609,2.8136427 C8.78272439,2.84238261 8.99316698,2.7768609 9.14759841,2.63351293 L9.14759841,2.63351293 Z M12.4807434,2.23761416 C12.2110838,1.98739242 11.7886872,1.98739242 11.5191192,2.23761416 L11.5191192,2.23761416 L10.0878348,3.5661536 C9.63145607,3.9897376 9.00901314,4.18384182 8.38043327,4.09845706 L8.38043327,4.09845706 L6.40868467,3.83083318 C6.03712412,3.78047243 5.69556138,4.01865329 5.63071117,4.3732 L5.63071117,4.3732 L5.28667532,6.25526825 C5.1769887,6.85537855 4.79232988,7.36329264 4.23148549,7.64888995 L4.23148549,7.64888995 L2.4723778,8.54448514 C2.14098225,8.71318926 2.01045746,9.09862918 2.17519348,9.42201902 L2.17519348,9.42201902 L3.04975532,11.138723 C3.32857458,11.6860995 3.32857458,12.313895 3.04975532,12.8612715 L3.04975532,12.8612715 L2.17519348,14.5779755 C2.01045746,14.9013653 2.14098225,15.2868052 2.4723778,15.4555094 L2.4723778,15.4555094 L4.23148549,16.3511045 C4.79237567,16.636614 5.1769887,17.144572 5.28672112,17.7446823 L5.28672112,17.7446823 L5.63080276,19.6267945 C5.69565297,19.9813412 6.03753631,20.2195221 6.40877627,20.1691613 L6.40877627,20.1691613 L8.38052486,19.9015374 C8.47789177,19.8883101 8.57512129,19.8818062 8.67157223,19.8818062 C9.19797639,19.8818062 9.70221424,20.0758225 10.0879264,20.4338409 L10.0879264,20.4338409 L11.519165,21.7623803 C11.7888246,22.0126021 12.2112212,22.0126021 12.4807892,21.7623803 L12.4807892,21.7623803 L13.9120736,20.4338848 C14.3684523,20.0103008 14.9906663,19.8161087 15.6194751,19.9015814 L15.6194751,19.9015814 L17.5912237,20.1692053 C17.9627843,20.2195221 18.3043928,19.9813852 18.3691972,19.6268384 L18.3691972,19.6268384 L18.7132331,17.7447702 C18.8229197,17.1446599 19.2075785,16.6367458 19.7684229,16.3511485 L19.7684229,16.3511485 L21.5275306,15.4555533 C21.8589262,15.2868492 21.9894509,14.9013653 21.8246691,14.5778876 L21.8246691,14.5778876 L20.9501073,12.8612276 C20.671288,12.313895 20.671288,11.6860116 20.9501073,11.138679 L20.9501073,11.138679 L21.8246691,9.42201902 C21.9894051,9.09862918 21.8588804,8.71318926 21.5274848,8.54448514 L21.5274848,8.54448514 L19.7683771,7.64888995 C19.2074869,7.36338053 18.8228739,6.85542249 18.7131415,6.25531219 L18.7131415,6.25531219 L18.3691056,4.3732 C18.3043012,4.01865329 17.9624179,3.78042848 17.5911321,3.83083318 L17.5911321,3.83083318 L15.6193835,4.09845706 C14.9907121,4.18384182 14.3683607,3.98978155 13.911982,3.5661536 L13.911982,3.5661536 Z M14.7047941,13.081435 C16.0719611,13.081435 17.1842612,14.1487226 17.1842612,15.460563 C17.1842612,16.7724034 16.0719611,17.839691 14.7047941,17.839691 C13.3376271,17.839691 12.225327,16.7724034 12.225327,15.460563 C12.225327,14.1487226 13.3376271,13.081435 14.7047941,13.081435 Z M15.9845781,7.25901161 C16.2486504,7.00562585 16.6768633,7.00562585 16.9408897,7.25901161 C17.2050078,7.51244132 17.2050078,7.92323739 16.9408439,8.1766671 L16.9408439,8.1766671 L8.01528446,16.7410268 C7.88329414,16.8677637 7.71017706,16.9310881 7.53715157,16.9310881 C7.36412609,16.9310881 7.1910548,16.8677197 7.05901868,16.7410268 C6.79494644,16.4876411 6.79494644,16.0768011 7.05901868,15.8234153 L7.05901868,15.8234153 Z M14.7047941,14.3791692 C14.0833129,14.3791692 13.5777469,14.8642759 13.5777469,15.460563 C13.5777469,16.0568501 14.0833587,16.5419568 14.7047941,16.5419568 C15.3262295,16.5419568 15.8317955,16.0568501 15.8317955,15.460563 C15.8317955,14.8642759 15.3262295,14.3791692 14.7047941,14.3791692 Z M9.29511431,6.16039141 C10.6622813,6.16039141 11.7745814,7.22767896 11.7745814,8.53951938 C11.7745814,9.8513598 10.6622813,10.9186474 9.29511431,10.9186474 C7.92794735,10.9186474 6.81564721,9.8513598 6.81564721,8.53951938 C6.81564721,7.22767896 7.92794735,6.16039141 9.29511431,6.16039141 Z M9.29511431,7.45808159 C8.67367895,7.45808159 8.16811295,7.94318833 8.16811295,8.53947544 C8.16811295,9.13580648 8.67367895,9.62091322 9.29511431,9.62091322 C9.91654967,9.62091322 10.4221157,9.13580648 10.4221615,8.53947544 C10.4221615,7.94318833 9.91654967,7.45808159 9.29511431,7.45808159 Z" id="Combined-Shape"></path>
                </g>
            </g>
        </g>
    </g>
</svg>