<?xml version="1.0" encoding="UTF-8"?>
<svg width="25px" height="24px" viewBox="0 0 25 24" version="1.1" xmlns="http://www.w3.org/2000/svg" xmlns:xlink="http://www.w3.org/1999/xlink">
    <title>E7431173-B2DD-4743-8AA9-B482CB1D91AC</title>
    <g id="Home-Page-+" stroke="none" stroke-width="1" fill="none" fill-rule="evenodd">
        <g id="Home-Page-" transform="translate(-1291.000000, -6141.000000)">
            <rect fill="#FFFFFF" x="0" y="0" width="1440" height="6225"></rect>
            <g id="Footer" transform="translate(0.000000, 5745.000000)">
                <g id="Icon/16px/Call" transform="translate(0.000000, 2.455933)" fill="#000000">
                    <rect id="Rectangle" x="0" y="0" width="1440" height="480"></rect>
                </g>
                <g id="Social-Media" transform="translate(1150.000000, 396.000000)">
                    <g id="Icon/Social/Pinterest" transform="translate(141.703704, 0.000000)">
                        <rect id="Rectangle" x="0" y="0" width="24" height="24"></rect>
                        <path d="M7.93079405,12.6943359 C7.9503066,12.6444092 8.14555078,11.8746338 8.15923331,11.8225098 C7.85440969,11.3519287 7.51579606,9.81091309 7.77552675,8.56005859 C8.05572179,6.72473144 9.95141071,5.82250975 11.7412085,5.82250975 L11.7412085,5.81909181 C13.9820549,5.82055663 15.6594178,7.09973144 15.6612025,9.30273438 C15.6626302,11.0270996 14.6501208,13.3063965 12.9212401,13.3063965 C12.9207642,13.3063965 12.9204072,13.3063965 12.9199313,13.3063965 C12.3029074,13.3063965 11.5216927,13.0192871 11.3168112,12.7373047 C11.0804004,12.4123535 11.0223387,12.0113525 11.1472665,11.5828857 C11.4533989,10.5803223 11.8437682,9.37939453 11.8893371,8.57861328 C11.9315746,7.82287597 11.4089008,7.33117675 10.7310787,7.33117675 C10.2210166,7.33117675 9.55854279,7.63513184 9.22837666,8.48925781 C8.95567729,9.19885253 8.96150725,9.94177247 9.24622346,10.7602539 C9.35723069,11.0802002 8.75412722,13.1660156 8.56090568,13.8452148 C8.08082632,15.5324707 7.42358753,17.6672363 7.56410146,18.8560791 L7.69973727,20 L8.38100976,19.0839844 C9.32379766,17.817749 10.2985908,14.5423584 10.5583215,13.7453613 C11.3262105,14.765625 12.9252854,14.7949219 13.1117251,14.7949219 C15.4017097,14.7949219 17.9984217,12.4619141 17.9247738,9.21484375 C17.8601683,6.36730956 15.8289625,4 12.1792884,4 L12.1792884,4.00366212 C8.70772551,4.00366212 6.68151687,5.90478516 6.18549431,8.30688475 C5.73123333,10.5341797 6.74148218,12.2293701 7.93079405,12.6943359 Z" id="Path" fill="#FFFFFF" fill-rule="nonzero"></path>
                    </g>
                </g>
            </g>
        </g>
    </g>
</svg>