<?xml version="1.0" encoding="UTF-8"?>
<svg width="28px" height="28px" viewBox="0 0 28 28" version="1.1" xmlns="http://www.w3.org/2000/svg" xmlns:xlink="http://www.w3.org/1999/xlink">
    <title>2AEB2A57-9A20-4469-AD5A-42C4D3F956EB</title>
    <g id="PDP" stroke="none" stroke-width="1" fill="none" fill-rule="evenodd">
        <g transform="translate(-1257.000000, -1404.000000)">
            <rect fill="#FFFFFF" x="0" y="0" width="1440" height="5093"></rect>
            <g id="Main-Product-Details" transform="translate(80.000000, 284.000000)">
                <g id="Product-Details-" transform="translate(778.000000, 3.000000)">
                    <g id="List-Copy-4" transform="translate(363.000000, 1117.000000)">
                        <g id="ArrowsCounterClockwise" transform="translate(36.000000, 0.000000)">
                            <rect id="Rectangle" x="0" y="0" width="28" height="28"></rect>
                            <polyline id="Path" stroke="#000000" stroke-width="2" stroke-linecap="round" stroke-linejoin="round" points="8.73173438 10.9064375 3.48173437 10.9064375 3.48173437 5.6564375"></polyline>
                            <path d="M20.8059031,7.19409688 C19.0008655,5.38905901 16.5527089,4.37499929 14,4.37499929 C11.4472911,4.37499929 8.99913455,5.38905901 7.19409687,7.19409688 L3.48178687,10.906408" id="Path" stroke="#000000" stroke-width="2" stroke-linecap="round" stroke-linejoin="round"></path>
                            <polyline id="Path" stroke="#000000" stroke-width="2" stroke-linecap="round" stroke-linejoin="round" points="19.2682656 17.0935625 24.5182656 17.0935625 24.5182656 22.3435625"></polyline>
                            <path d="M7.19409687,20.8059031 C8.99913455,22.610941 11.4472911,23.6250007 14,23.6250007 C16.5527089,23.6250007 19.0008655,22.610941 20.8059031,20.8059031 L24.5182131,17.093592" id="Path" stroke="#000000" stroke-width="2" stroke-linecap="round" stroke-linejoin="round"></path>
                        </g>
                    </g>
                </g>
            </g>
        </g>
    </g>
</svg>