<?xml version="1.0" encoding="UTF-8"?>
<svg width="24px" height="24px" viewBox="0 0 24 24" version="1.1" xmlns="http://www.w3.org/2000/svg" xmlns:xlink="http://www.w3.org/1999/xlink">
    <title>90C63D67-9C74-4704-A3F4-DA17CA0F1AAD</title>
    <g id="Signup" stroke="none" stroke-width="1" fill="none" fill-rule="evenodd">
        <g id="Account_Signup" transform="translate(-990.000000, -526.000000)">
            <rect fill="#FFFFFF" x="0" y="0" width="1440" height="1701"></rect>
            <g id="LOYALTY-Card" transform="translate(960.000000, 284.000000)">
                <rect id="Rectangle" fill="#F4F4F4" x="0" y="0" width="400" height="367"></rect>
                <g id="Icon/24px/Rewards" transform="translate(30.000000, 242.000000)" fill="#000000" fill-rule="nonzero" stroke="#000000" stroke-width="0.5">
                    <g id="paper-bag">
                        <path d="M6.71213285,9.38355556 C6.41974545,9.38355556 6.18340337,9.18444444 6.18340337,8.93911111 L6.18340337,4.88888889 C6.18340337,4.64355556 6.41974545,4.44444444 6.71213285,4.44444444 C7.00452026,4.44444444 7.24086234,4.64355556 7.24086234,4.88888889 L7.24086234,8.93911111 C7.24086234,9.18444444 7.00452026,9.38355556 6.71213285,9.38355556 Z" id="Path"></path>
                        <path d="M17.2867225,9.38355556 C16.9943351,9.38355556 16.7579931,9.18444444 16.7579931,8.93911111 L16.7579931,4.88888889 C16.7579931,4.64355556 16.9943351,4.44444444 17.2867225,4.44444444 C17.57911,4.44444444 17.815452,4.64355556 17.815452,4.88888889 L17.815452,8.93911111 C17.815452,9.18444444 17.57911,9.38355556 17.2867225,9.38355556 Z" id="Path"></path>
                        <path d="M17.2867225,5.33333333 C16.9943351,5.33333333 16.7579931,5.13422222 16.7579931,4.88888889 C16.7579931,2.72088889 14.5790989,0.888888889 11.9994277,0.888888889 C9.41975655,0.888888889 7.24086234,2.72088889 7.24086234,4.88888889 C7.24086234,5.13422222 7.00452026,5.33333333 6.71213285,5.33333333 C6.41974545,5.33333333 6.18340337,5.13422222 6.18340337,4.88888889 C6.18340337,2.23911111 8.84661378,0 11.9994277,0 C15.1522416,0 17.815452,2.23911111 17.815452,4.88888889 C17.815452,5.13422222 17.57911,5.33333333 17.2867225,5.33333333 Z" id="Path"></path>
                        <path d="M23.4649266,22.0924444 C23.1899872,22.0924444 22.9584037,21.9142222 22.938312,21.6804444 L21.5990402,6.30488889 C21.5773623,6.06 21.7962563,5.84711111 22.0875863,5.82888889 C22.3884333,5.81333333 22.6321776,5.99511111 22.6533268,6.23955556 L23.9925986,21.6151111 C24.0142765,21.86 23.7953825,22.0728889 23.5040526,22.0911111 C23.4903056,22.092 23.4776161,22.0924444 23.4649266,22.0924444 Z" id="Path"></path>
                        <path d="M22.1256548,6.71688889 L1.87372934,6.71688889 C1.58134194,6.71688889 1.34499986,6.51777778 1.34499986,6.27244444 C1.34499986,6.02711111 1.58134194,5.828 1.87372934,5.828 L22.1261835,5.828 C22.4185709,5.828 22.654913,6.02711111 22.654913,6.27244444 C22.654913,6.51777778 22.4180422,6.71688889 22.1256548,6.71688889 Z" id="Path"></path>
                        <path d="M0.533928827,22.0924444 C0.521239319,22.0924444 0.508021082,22.092 0.494802845,22.0915556 C0.203472899,22.0733333 -0.0154211075,21.8604444 0.00625680135,21.6155556 L1.34605732,6.24 C1.36720649,5.99555556 1.61147952,5.81377778 1.91179786,5.82933333 C2.20312781,5.84755556 2.42202182,6.06044444 2.40034391,6.30533333 L1.06054339,21.6808889 C1.04045167,21.9142222 0.808868159,22.0924444 0.533928827,22.0924444 L0.533928827,22.0924444 Z" id="Path"></path>
                        <path d="M2.64303074,24 C1.91920008,24 1.21598986,23.7395556 0.714225581,23.2857778 C0.211932571,22.8315556 -0.0460874176,22.2226667 0.00678553084,21.616 C0.0279347102,21.3715556 0.271679003,21.1893333 0.572526079,21.2048889 C0.863856025,21.2231111 1.0822213,21.436 1.06107212,21.6804444 C1.02934835,22.0417778 1.18532355,22.4066667 1.48881428,22.6804444 C1.79071881,22.9537778 2.21158748,23.1111111 2.64303074,23.1111111 C2.93541815,23.1111111 3.17176023,23.3102222 3.17176023,23.5555556 C3.17176023,23.8008889 2.93488942,24 2.64303074,24 L2.64303074,24 Z" id="Path"></path>
                        <path d="M21.3558247,24 L2.64303074,24 C2.35064334,24 2.11430126,23.8008889 2.11430126,23.5555556 C2.11430126,23.3102222 2.35064334,23.1111111 2.64303074,23.1111111 L21.3563534,23.1111111 C21.6487408,23.1111111 21.8850829,23.3102222 21.8850829,23.5555556 C21.8850829,23.8008889 21.6482121,24 21.3558247,24 Z" id="Path"></path>
                        <path d="M21.3558247,24 C21.0634373,24 20.8270952,23.8008889 20.8270952,23.5555556 C20.8270952,23.3102222 21.0634373,23.1111111 21.3558247,23.1111111 C21.7893828,23.1111111 22.2139526,22.9515556 22.5190295,22.6733333 C22.8188191,22.4 22.971622,22.0391111 22.9377833,21.6835556 C22.9145192,21.4386667 23.1312983,21.2244444 23.4226282,21.2048889 C23.7203029,21.1822222 23.9688058,21.368 23.9920699,21.6124444 C24.0491727,22.2146667 23.7959112,22.8213333 23.2962619,23.2764444 C22.7913252,23.736 22.0838852,24 21.3558247,24 L21.3558247,24 Z" id="Path"></path>
                    </g>
                    <path d="M14.4347865,12.1333333 C13.3075363,12.1333333 12.3765109,12.9434383 12,13.3257771 C11.6234891,12.9434383 10.6924637,12.1333333 9.56521349,12.1333333 C8.10593345,12.1333333 6.91872022,13.1714041 6.91872022,14.4471927 C6.91872022,15.143238 7.27579922,15.7919209 7.90081648,16.2358584 C7.90990721,16.2480215 7.92108205,16.2592171 7.93410283,16.2692915 L11.8505191,19.2932636 C11.891864,19.3250996 11.9458328,19.341102 12,19.341102 C12.0541672,19.341102 12.1083345,19.3250996 12.1496993,19.29311 L16.196363,16.1632331 L16.2381248,16.1318732 C16.2712126,16.1077159 16.3038837,16.0832362 16.3404649,16.0518916 C16.3557683,16.04022 16.3683723,16.0270894 16.3780981,16.012853 C16.8319398,15.5828447 17.0812798,15.0282108 17.0812798,14.4471927 C17.0812798,13.1714041 15.8940864,12.1333333 14.4347865,12.1333333 Z" id="Path"></path>
                    <path d="M16.0257828,15.8285637 C16.019987,15.8338467 16.014608,15.8394368 16.0098641,15.8451958 C15.9900154,15.8627955 15.9683009,15.8783065 15.9468047,15.8941554 L11.9998015,18.9458015 L8.28167428,16.0747589 C8.26968563,16.0565142 8.25293329,16.0398821 8.23246923,16.0259683 C7.66656154,15.6436294 7.34215359,15.0682015 7.34215359,14.4471927 C7.34215359,13.3520076 8.33935474,12.460969 9.56521349,12.460969 C10.7772377,12.460969 11.8116354,13.6841276 11.8219766,13.6964443 C11.9001409,13.7898636 12.0998591,13.7898636 12.1780234,13.6964443 C12.1883646,13.6841276 13.2227623,12.460969 14.4347865,12.460969 C15.6606453,12.460969 16.6578464,13.352023 16.6578464,14.4471927 C16.6578464,14.9632641 16.4332975,15.4539036 16.0257828,15.8285637 Z" id="Path"></path>
                </g>
            </g>
        </g>
    </g>
</svg>