<?xml version="1.0" encoding="UTF-8"?>
<svg width="24px" height="24px" viewBox="0 0 24 24" version="1.1" xmlns="http://www.w3.org/2000/svg" xmlns:xlink="http://www.w3.org/1999/xlink">
    <title>F8F8EED9-894F-450E-8BEB-AB9C157509EA</title>
    <g id="Cart" stroke="none" stroke-width="1" fill="none" fill-rule="evenodd">
        <g id="CA_Cart" transform="translate(-720.000000, -1954.000000)">
            <rect fill="#FFFFFF" x="0" y="0" width="1440" height="4210"></rect>
            <g id="items" transform="translate(60.000000, 434.000000)" fill="#000000" fill-rule="nonzero">
                <g id="Icon/24px/offer" transform="translate(660.000000, 1520.000000)">
                    <path d="M13.4065443,2 C14.8099548,2 15.9476437,3.34640216 15.9476437,5.00727339 L15.9476437,5.00727339 L15.9476437,6.50206516 C15.9476437,6.9905567 15.6130293,7.38655733 15.2002616,7.38655733 C14.7874938,7.38655733 14.4528794,6.9905567 14.4528794,6.50206516 L14.4528794,6.50206516 L14.4528794,5.00727339 C14.4528794,4.32338523 13.9844192,3.76898435 13.4065443,3.76898435 L13.4065443,3.76898435 L3.54109944,3.76898435 C2.96322454,3.76898435 2.49476437,4.32338523 2.49476437,5.00727339 L2.49476437,5.00727339 L2.49476437,18.4338646 C2.49476437,19.1177527 2.96322454,19.6721536 3.54109944,19.6721536 L3.54109944,19.6721536 L13.4065443,19.6721536 C13.9844192,19.6721536 14.4528794,19.1177527 14.4528794,18.4338646 L14.4528794,18.4338646 L14.4528794,17.1071263 C14.4528794,16.6186348 14.7874938,16.2226341 15.2002616,16.2226341 C15.6130293,16.2226341 15.9476437,16.6186348 15.9476437,17.1071263 L15.9476437,17.1071263 L15.9476437,18.4338646 C15.9476437,20.0947358 14.8099548,21.441138 13.4065443,21.441138 L13.4065443,21.441138 L3.54109944,21.441138 C2.13768897,21.441138 1,20.0947358 1,18.4338646 L1,18.4338646 L1,5.00727339 C1,3.34640216 2.13768897,2 3.54109944,2 L3.54109944,2 Z M18.6965367,6.99071443 C18.89424,6.96914248 19.0910715,7.04155329 19.2435992,7.19196906 L19.2435992,7.19196906 L22.4498688,10.3849858 C22.7979928,10.7209353 23,11.2243505 23,11.7559487 C23,12.2875469 22.7979928,12.7909621 22.4498688,13.1269115 L22.4498688,13.1269115 L19.2435992,16.2580138 C18.925768,16.5706484 18.4539617,16.5191683 18.1897903,16.1430298 C17.925619,15.7668913 17.9691188,15.2085305 18.28695,14.8958959 L18.28695,14.8958959 L20.6113086,12.6139061 L9.96858624,12.6139061 C9.55581846,12.6139061 9.22120406,12.2179054 9.22120406,11.7294139 C9.22120406,11.2409224 9.55581846,10.8449217 9.96858624,10.8449217 L9.96858624,10.8449217 L20.5963609,10.8449217 L18.2794762,8.554087 C18.1277304,8.40286488 18.0330119,8.1864494 18.0161893,7.95252157 C17.9993667,7.71859375 18.0618204,7.48634798 18.1897903,7.30695304 L18.1897903,7.30695304 L18.2575967,7.22221873 C18.37771,7.09070223 18.531784,7.00869106 18.6965367,6.99071443 Z" id="Combined-Shape" transform="translate(12.000000, 11.720569) rotate(-90.000000) translate(-12.000000, -11.720569) "></path>
                </g>
            </g>
        </g>
    </g>
</svg>