<?xml version="1.0" encoding="UTF-8"?>
<svg width="32px" height="32px" viewBox="0 0 32 32" version="1.1" xmlns="http://www.w3.org/2000/svg" xmlns:xlink="http://www.w3.org/1999/xlink">
    <title>8B4B8E92-F2B0-41F6-8410-A52167ADB146</title>
    <g id="Cart" stroke="none" stroke-width="1" fill="none" fill-rule="evenodd">
        <g id="CA_Cart" transform="translate(-953.000000, -586.000000)">
            <rect fill="#FFFFFF" x="0" y="0" width="1440" height="4210"></rect>
            <g id="Payment-section-left" transform="translate(923.000000, 434.000000)">
                <g id="Store-Credit" transform="translate(0.000000, 122.000000)">
                    <rect id="Rectangle" fill="#F4F4F4" x="0" y="0" width="457" height="160"></rect>
                    <g id="Icon/24px/offer" transform="translate(30.000000, 30.000000)">
                        <g id="Group" transform="translate(1.000000, 1.000000)">
                            <path d="M22.5005414,21.5005173 L23.5005655,21.5005173 C23.7767145,21.5005173 24.0005775,21.7243803 24.0005775,22.0005294 L25.0006015,22.0005294 C25.0006015,21.1720823 24.3290125,20.5004933 23.5005655,20.5004933 L23.5005655,20.0004812 L22.5005414,20.0004812 L22.5005414,20.5004933 C21.6720943,20.5004933 21.0005053,21.1720823 21.0005053,22.0005294 C21.0005053,22.8289764 21.6720943,23.5005655 22.5005414,23.5005655 L23.5005655,23.5005655 C23.7767145,23.5005655 24.0005775,23.7244285 24.0005775,24.0005775 C24.0005775,24.2767265 23.7767145,24.5005895 23.5005655,24.5005895 L22.5005414,24.5005895 C22.2243924,24.5005895 22.0005294,24.2767265 22.0005294,24.0005775 L21.0005053,24.0005775 C21.0005053,24.8290245 21.6720943,25.5006136 22.5005414,25.5006136 L22.5005414,26.0006256 L23.5005655,26.0006256 L23.5005655,25.5006136 C24.3290125,25.5006135 25.0006015,24.8290245 25.0006015,24.0005775 C25.0006015,23.1721305 24.3290125,22.5005414 23.5005655,22.5005414 L22.5005414,22.5005414 C22.2243924,22.5005414 22.0005294,22.2766784 22.0005294,22.0005294 C22.0005294,21.7243803 22.2243924,21.5005173 22.5005414,21.5005173 L22.5005414,21.5005173 Z" id="Path" fill="#000000" fill-rule="nonzero"></path>
                            <path d="M23.0005534,18.0004331 C20.2390632,18.0004331 18.0004331,20.2390632 18.0004331,23.0005534 C18.0004331,25.7620436 20.2390632,28.0006737 23.0005534,28.0006737 C25.7620436,28.0006737 28.0006737,25.7620436 28.0006737,23.0005534 C27.9976425,20.2403198 25.7607871,18.0034644 23.0005534,18.0004331 Z M23.0005534,27.0006497 C20.7913613,27.0006497 19.0004572,25.2097456 19.0004572,23.0005534 C19.0004572,20.7913613 20.7913613,19.0004572 23.0005534,19.0004572 C25.2097456,19.0004572 27.0006497,20.7913613 27.0006497,23.0005534 C26.9981697,25.2087175 25.2087175,26.9981697 23.0005534,27.0006497 L23.0005534,27.0006497 Z" id="Shape" fill="#000000" fill-rule="nonzero"></path>
                            <path d="M27.0006497,17.2639154 L27.0006497,10.9502635 C28.1638861,10.7110414 28.9991986,9.68778352 29.0006978,8.50020453 L29.0006978,5.50013234 C29.0006164,5.39761024 28.9690222,5.29759104 28.9101956,5.21362545 L25.4101114,0.213505137 C25.3166194,0.0797844929 25.1637639,0 25.0006015,0 L4.00009625,0 C3.83693387,0 3.68407843,0.0797844929 3.59058639,0.213505137 L0.0905021776,5.21362545 C0.0316755968,5.29759104 0,5.39761024 0,5.50013234 L0,8.50020453 C0.00149917978,9.68778352 0.836811734,10.7110414 2.00004812,10.9502635 L2.00004812,25.5006136 C2.00004812,26.3290606 2.67163716,27.0006497 3.50008422,27.0006497 L17.2639154,27.0006497 C18.861621,29.2963195 21.6732898,30.4195195 24.412964,29.8565378 C27.1526382,29.2935561 29.2935561,27.1526382 29.8565378,24.412964 C30.4195195,21.6732898 29.2963195,18.861621 27.0006497,17.2639154 Z M4.26060252,1.00002406 L24.7400953,1.00002406 L27.5401627,5.00012031 L1.46053514,5.00012031 L4.26060252,1.00002406 Z M1.00002406,8.50020453 L1.00002406,6.00014437 L28.0006737,6.00014437 L28.0006737,8.50020453 C28.0006737,9.32865159 27.3290847,10.0002406 26.5006376,10.0002406 C25.6721906,10.0002406 25.0006015,9.32865159 25.0006015,8.50020453 L24.0005775,8.50020453 C24.0005775,9.32865156 23.3289884,10.0002406 22.5005414,10.0002406 C21.6720944,10.0002406 21.0005053,9.32865156 21.0005053,8.50020453 L20.0004812,8.50020453 C20.0004812,9.32865159 19.3288922,10.0002406 18.5004451,10.0002406 C17.6719981,10.0002406 17.0004091,9.32865159 17.0004091,8.50020453 L16.000385,8.50020453 C16.000385,9.32865159 15.328796,10.0002406 14.5003489,10.0002406 C13.6719018,10.0002406 13.0003128,9.32865159 13.0003128,8.50020453 L12.0002887,8.50020453 C12.0002887,9.32865159 11.3286997,10.0002406 10.5002527,10.0002406 C9.67180559,10.0002406 9.00021656,9.32865159 9.00021656,8.50020453 L8.0001925,8.50020453 C8.0001925,9.32865159 7.32860346,10.0002406 6.5001564,10.0002406 C5.67170934,10.0002406 5.00012031,9.32865159 5.00012031,8.50020453 L4.00009625,8.50020453 C4.00009624,9.32865158 3.3285072,10.0002406 2.50006015,10.0002406 C1.67161311,10.0002406 1.00002406,9.32865158 1.00002406,8.50020453 Z M14.0003369,26.0006256 L5.00012031,26.0006256 L3.50008422,26.0006256 C3.2239352,26.0006256 3.00007219,25.7767626 3.00007219,25.5006136 L3.00007219,10.9502635 C3.60183663,10.8242265 4.13595015,10.4806135 4.50010828,9.98524026 C4.96651369,10.6235638 5.70959273,11.0009198 6.5001564,11.0009198 C7.29072007,11.0009198 8.03379911,10.6235638 8.50020453,9.98524026 C8.96660994,10.6235638 9.70968898,11.0009198 10.5002527,11.0009198 C11.2908163,11.0009198 12.0338954,10.6235638 12.5003008,9.98524026 C12.9667062,10.6235638 13.7097852,11.0009198 14.5003489,11.0009198 C15.2909126,11.0009198 16.0339916,10.6235638 16.500397,9.98524026 C16.9668024,10.6235638 17.7098815,11.0009198 18.5004451,11.0009198 C19.2910088,11.0009198 20.0340879,10.6235638 20.5004933,9.98524026 C20.9668987,10.6235638 21.7099777,11.0009198 22.5005414,11.0009198 C23.2911051,11.0009198 24.0341841,10.6235638 24.5005895,9.98524026 C24.8647476,10.4806135 25.3988612,10.8242265 26.0006256,10.9502635 L26.0006256,16.6854015 C23.3288564,15.4057229 20.1404328,15.9509393 18.0456861,18.0456861 C15.9509393,20.1404328 15.4057229,23.3288564 16.6854015,26.0006256 L14.0003369,26.0006256 Z M23.0005534,29.0006978 C19.6867652,29.0006978 17.0004091,26.3143417 17.0004091,23.0005534 C17.0004091,19.6867652 19.6867652,17.0004091 23.0005534,17.0004091 C26.3143417,17.0004091 29.0006978,19.6867652 29.0006978,23.0005534 C28.9971153,26.3128566 26.3128566,28.9971153 23.0005534,29.0006978 Z" id="Shape" stroke="#000000" stroke-width="0.3" fill="#000000" fill-rule="nonzero"></path>
                            <path d="M13.4000282,14.0153503 L13.9000282,26.4792252 L5.58282083,26.4792252 L5.58282083,14.5153503 L13.4000282,14.0153503 Z" id="Rectangle" stroke="#000000"></path>
                        </g>
                    </g>
                </g>
            </g>
        </g>
    </g>
</svg>