<?xml version="1.0" encoding="UTF-8"?>
<svg width="25px" height="24px" viewBox="0 0 25 24" version="1.1" xmlns="http://www.w3.org/2000/svg" xmlns:xlink="http://www.w3.org/1999/xlink">
    <title>7CFF4805-F1FA-41C0-8258-4E3FE94106D6</title>
    <g id="Home-Page-+" stroke="none" stroke-width="1" fill="none" fill-rule="evenodd">
        <g id="Home-Page-" transform="translate(-1193.000000, -6141.000000)">
            <rect fill="#FFFFFF" x="0" y="0" width="1440" height="6225"></rect>
            <g id="Footer" transform="translate(0.000000, 5745.000000)">
                <g id="Icon/16px/Call" transform="translate(0.000000, 2.455933)" fill="#000000">
                    <rect id="Rectangle" x="0" y="0" width="1440" height="480"></rect>
                </g>
                <g id="Social-Media" transform="translate(1150.000000, 396.000000)">
                    <g id="Icon/Social/Twitter" transform="translate(43.703704, 0.000000)">
                        <rect id="Rectangle" x="0" y="0" width="24" height="24"></rect>
                        <path d="M21.6923077,5.89415385 C20.96,6.21538462 20.1796923,6.42830769 19.3661538,6.53169231 C20.2030769,6.032 20.8418462,5.24676923 21.1421538,4.30030769 C20.3618462,4.76553846 19.5003077,5.09415385 18.5821538,5.27753846 C17.8412308,4.48861538 16.7852308,4 15.6332308,4 C13.3981538,4 11.5987692,5.81415385 11.5987692,8.03815385 C11.5987692,8.35815385 11.6258462,8.66584615 11.6923077,8.95876923 C8.336,8.79507692 5.36615385,7.18646154 3.37107692,4.736 C3.02276923,5.34030769 2.81846154,6.032 2.81846154,6.77661538 C2.81846154,8.17476923 3.53846154,9.41415385 4.61169231,10.1316923 C3.96307692,10.1193846 3.32676923,9.93107692 2.78769231,9.63446154 C2.78769231,9.64676923 2.78769231,9.66276923 2.78769231,9.67876923 C2.78769231,11.6406154 4.18707692,13.2701538 6.02215385,13.6455385 C5.69353846,13.7353846 5.33538462,13.7784615 4.96369231,13.7784615 C4.70523077,13.7784615 4.44430769,13.7636923 4.19938462,13.7095385 C4.72246154,15.3083077 6.20676923,16.4836923 7.97169231,16.5218462 C6.59815385,17.5963077 4.85415385,18.2436923 2.96615385,18.2436923 C2.63507692,18.2436923 2.31753846,18.2289231 2,18.1883077 C3.78830769,19.3415385 5.90769231,20 8.19323077,20 C15.6221538,20 19.6836923,13.8461538 19.6836923,8.512 C19.6836923,8.33353846 19.6775385,8.16123077 19.6689231,7.99015385 C20.4701538,7.42153846 21.1433846,6.71138462 21.6923077,5.89415385 Z" id="Path" fill="#FFFFFF" fill-rule="nonzero"></path>
                    </g>
                </g>
            </g>
        </g>
    </g>
</svg>