<?xml version="1.0" encoding="UTF-8"?>
<svg width="150px" height="23px" viewBox="0 0 150 23" version="1.1" xmlns="http://www.w3.org/2000/svg" xmlns:xlink="http://www.w3.org/1999/xlink">
    <title>DE7A4829-8221-4FAE-A7B4-6BF28847D427</title>
    <g id="Home-Page-+" stroke="none" stroke-width="1" fill="none" fill-rule="evenodd">
        <g id="Home-Page-" transform="translate(-87.000000, -6142.000000)">
            <g id="Footer" transform="translate(0.000000, 5745.000000)">
                <g id="RT_Logo/White" transform="translate(87.000000, 397.000000)">
                    <path d="M150,19.8626478 C150,21.5506481 148.630006,22.9184398 146.939288,22.9184398 C145.24857,22.9184398 143.877551,21.5506481 143.877551,19.8626478 C143.877551,18.1746476 145.24857,16.8068558 146.939288,16.8068558 C148.630006,16.8068558 150,18.1746476 150,19.8626478" id="Fill-1" fill="#E60028"></path>
                    <path d="M128.793972,22.9184398 C121.554141,22.9184398 117.091837,17.9950749 117.091837,11.64633 C117.091837,4.99115165 122.257653,0 129.988598,0 C132.940081,0 135.118854,0.577580712 136.806514,1.15516142 L136.736355,4.99115165 C134.979497,4.10806603 132.835323,3.39491171 130.410513,3.39491171 C124.330707,3.39491171 121.730019,6.99411241 121.730019,11.3064674 C121.730019,15.9921142 124.787221,19.5235281 129.84828,19.5235281 C131.3937,19.5235281 132.659445,19.2848814 133.502314,18.9125183 L133.502314,11.3064674 L137.755102,11.3064674 L137.755102,20.8133345 C135.646488,21.9341382 132.519127,22.9184398 128.793972,22.9184398" id="Fill-3" fill="#FFFFFF"></path>
                    <polygon id="Fill-5" fill="#FFFFFF" points="88.0102041 0 86.7127745 3.51252482 80.9592372 3.51252482 80.9592372 22.9184398 76.8417899 22.9184398 76.8417899 3.51252482 70.4081633 3.51252482 70.4081633 0"></polygon>
                    <path d="M53.456966,0 L46.6836735,0 L46.6836735,22.9184398 L53.1856269,22.9184398 C61.0757626,22.9184398 65.8163265,18.1190354 65.8163265,11.2680427 C65.8163265,4.55591495 61.5499116,0 53.456966,0 M53.3893628,19.3716743 L50.7815433,19.3716743 L50.7815433,3.54676552 L53.3550981,3.54676552 C58.7726209,3.54676552 61.4480436,6.74731955 61.4480436,11.3374752 C61.4480436,15.5804682 59.2476959,19.3716743 53.3893628,19.3716743" id="Fill-7" fill="#FFFFFF"></path>
                    <polygon id="Fill-9" fill="#FFFFFF" points="35.9693878 0 34.7477723 3.51252482 28.2744084 3.51252482 28.2744084 9.45899251 34.7477723 9.45899251 34.7477723 12.9724685 28.2744084 12.9724685 28.2744084 19.405915 35.9693878 19.405915 35.9693878 22.9184398 24.4897959 22.9184398 24.4897959 0"></polygon>
                    <path d="M10.0403325,12.5206815 L10.0403325,12.4854897 C12.179364,11.5809646 14.2495162,9.52937617 14.2495162,6.46958945 C14.2495162,2.9561135 12.0416055,0 6.14157734,0 L1.42108547e-14,0 L1.42108547e-14,22.9184398 L4.17521582,22.9184398 L4.17521582,13.8769935 L6.10760949,13.8769935 C6.97001565,14.1547236 8.55706943,17.0071639 12.0765169,22.9184398 L16.8367347,22.9184398 C13.3521986,17.0756453 11.0754086,13.1113335 10.0403325,12.5206815 M6.27933588,10.6773906 L4.17521582,10.6773906 L4.17521582,3.54771665 L6.24536802,3.54771665 C8.8325865,3.54771665 10.0403325,5.07808557 10.0403325,6.95561712 C10.0403325,9.04239737 8.41836735,10.6773906 6.27933588,10.6773906" id="Fill-11" fill="#FFFFFF"></path>
                    <path d="M103.509284,0 L100.521701,0 L91.8367347,22.9184398 L95.8739342,22.9184398 L97.9442691,17.2069013 L105.917994,17.2069013 L108.122561,22.9184398 L112.5,22.9184398 L103.509284,0 Z M99.1998931,13.7790271 C99.1998931,13.7790271 101.812747,6.5085858 101.947911,5.71344073 L101.981469,5.71344073 C102.151122,6.4743451 104.62788,13.7790271 104.62788,13.7790271 L99.1998931,13.7790271 Z" id="Fill-13" fill="#FFFFFF"></path>
                </g>
            </g>
        </g>
    </g>
</svg>