<?xml version="1.0" encoding="UTF-8"?>
<svg width="25px" height="24px" viewBox="0 0 25 24" version="1.1" xmlns="http://www.w3.org/2000/svg" xmlns:xlink="http://www.w3.org/1999/xlink">
    <title>430CE9ED-CDBE-44EF-ACEB-FC96F31CE0CE</title>
    <g id="Home-Page-+" stroke="none" stroke-width="1" fill="none" fill-rule="evenodd">
        <g id="Home-Page-" transform="translate(-1244.000000, -6141.000000)">
            <rect fill="#FFFFFF" x="0" y="0" width="1440" height="6225"></rect>
            <g id="Footer" transform="translate(0.000000, 5745.000000)">
                <g id="Icon/16px/Call" transform="translate(0.000000, 2.455933)" fill="#000000">
                    <rect id="Rectangle" x="0" y="0" width="1440" height="480"></rect>
                </g>
                <g id="Social-Media" transform="translate(1150.000000, 396.000000)">
                    <g id="Icon/Social/Youtube" transform="translate(94.703704, 0.000000)">
                        <rect id="Rectangle" x="0" y="0" width="24" height="24"></rect>
                        <path d="M12.1612109,4.00114888 C13.6002477,4.00868942 19.0984544,4.06524349 20.6257341,4.48939902 C21.5902702,4.75302147 22.350869,5.52470994 22.6104726,6.50370473 C23.0198155,8.02093927 23.0685468,10.9342261 23.0739166,11.7822094 L23.0740696,12.1123431 C23.0703753,12.6976386 23.0309698,15.895184 22.6106444,17.5158704 C22.350869,18.4946908 21.5904421,19.2665537 20.6257341,19.5300018 C19.0592934,19.9484501 13.3158134,19.9949444 12.0588233,20.0001104 L11.9050064,20.0006167 C11.8853393,20.0006632 11.8687471,20.0006942 11.855365,20.0007148 L11.7740935,20.0007132 C11.7607453,20.0006917 11.7441948,20.0006595 11.7245767,20.0006112 L11.5711363,20.0000848 C11.0068525,19.997668 9.53601536,19.9865505 7.94455944,19.9354102 L7.41068487,19.9168381 C5.62339907,19.8497036 3.79501108,19.7288616 3.00362028,19.5113459 C2.03891228,19.2477235 1.27848531,18.4758606 1.01870998,17.4970402 C0.612961348,15.948716 0.56224277,12.9015729 0.555902947,12.1639797 L0.555902947,11.8375304 C0.56224277,11.103253 0.612961348,8.06835284 1.01870998,6.50370473 C1.27831347,5.52488429 2.05746766,4.7341913 3.00344848,4.47074318 C4.53072811,4.06275604 10.0288058,4.00835776 11.4678082,4.00110465 Z M9.57016334,8.57432664 L9.57016334,15.4264183 L15.4317737,12.0003725 L9.57016334,8.57432664 Z" id="Combined-Shape" fill="#FFFFFF" fill-rule="nonzero"></path>
                    </g>
                </g>
            </g>
        </g>
    </g>
</svg>