<?xml version="1.0" encoding="UTF-8"?>
<svg width="28px" height="28px" viewBox="0 0 28 28" version="1.1" xmlns="http://www.w3.org/2000/svg" xmlns:xlink="http://www.w3.org/1999/xlink">
    <title>92294555-1CF0-4268-A010-7344296D6FE8</title>
    <g id="Dashboard-&amp;-Account-Pages" stroke="none" stroke-width="1" fill="none" fill-rule="evenodd">
        <g id="Account_Address-Book" transform="translate(-104.000000, -980.000000)">
            <rect fill="#FFFFFF" x="0" y="0" width="1440" height="1721"></rect>
            <g id="Dashboard-TAB" transform="translate(80.000000, 284.000000)">
                <g id="Input-Field/Standard-Inactive" transform="translate(0.000000, 682.000000)">
                    <rect id="Rectangle" stroke="#C8C8C8" fill="#F4F4F4" x="0.5" y="0.5" width="245" height="55" rx="10"></rect>
                    <g id="Icon/24px/Chevron/Right" transform="translate(24.000000, 13.947259)" stroke="#000000">
                        <g id="Group" transform="translate(0.961165, 0.000000)">
                            <path d="M21.4003164,0 C23.1850772,0.00121288535 24.6419412,1.40136101 24.7346301,3.16246267 L24.7393098,3.34589063 L24.739,10.171 L23.407,10.171 L23.4078508,3.34589063 C23.4045049,2.23860993 22.5075971,1.34149304 21.4003164,1.33835625 L5.58763734,1.33835625 C4.53068759,1.34135045 3.66523001,2.15890092 3.58600768,3.19626469 L3.58010297,3.34589063 L3.58010297,4.79131538 L5.14577062,4.79131538 C5.51549154,4.79131538 5.81494875,5.09098169 5.81494875,5.4604935 C5.81494875,5.79641333 5.56746345,6.0746096 5.24468933,6.12241455 L5.14577062,6.12967163 L3.58010297,6.12967163 L3.58010297,10.5194801 L5.14577062,10.5194801 C5.51549154,10.5194801 5.81494875,10.8189373 5.81494875,11.1886583 C5.81494875,11.5245781 5.56746345,11.8027744 5.24468933,11.8505793 L5.14577062,11.8578364 L3.58010297,11.8578364 L3.58010297,16.2476449 L5.14577062,16.2476449 C5.51549154,16.2476449 5.81494875,16.5473112 5.81494875,16.916823 C5.81494875,17.2529329 5.56746345,17.5309737 5.24468933,17.5787488 L5.14577062,17.5860011 L3.58010297,17.5860011 L3.58010297,21.9758096 L5.14577062,21.9758096 C5.51549154,21.9758096 5.81494875,22.2754759 5.81494875,22.6449878 C5.81494875,22.9809076 5.56746345,23.2591039 5.24468933,23.3069088 L5.14577062,23.3141659 L3.58010297,23.3141659 L3.58010297,24.7595906 C3.58309712,25.8165404 4.40064763,26.6819979 5.43801141,26.7612203 L5.58763734,26.767125 L21.4003164,26.767125 C22.4572661,26.7641308 23.3225332,25.9465803 23.4019201,24.9092166 L23.4078508,24.7595906 L23.407,14.079 L24.739,14.079 L24.7393098,24.7595906 C24.738902,26.5455643 23.3391715,28.0044228 21.5769634,28.1004512 L21.3934155,28.1054813 L5.5807364,28.1054813 C3.79476276,28.1046727 2.33590428,26.7053197 2.23987583,24.9431372 L2.23484578,24.7595906 L2.23484578,23.3141659 L0.669178125,23.3141659 C0.299457211,23.3141659 0,23.0144996 0,22.6449878 C0,22.3090679 0.247485298,22.0308716 0.57025942,21.9830667 L0.669178125,21.9758096 L2.23484578,21.9758096 L2.23484578,17.5860011 L0.669178125,17.5860011 C0.299457211,17.5860011 0,17.2865439 0,16.916823 C0,16.5809032 0.247485298,16.3027069 0.57025942,16.254902 L0.669178125,16.2476449 L2.23484578,16.2476449 L2.23484578,11.8578364 L0.669178125,11.8578364 C0.299457211,11.8578364 0,11.5581701 0,11.1886583 C0,10.8525483 0.247485298,10.5745076 0.57025942,10.5267325 L0.669178125,10.5194801 L2.23484578,10.5194801 L2.23484578,6.12967163 L0.669178125,6.12967163 C0.299457211,6.12967163 0,5.83000531 0,5.4604935 C0,5.12457367 0.247485298,4.8463774 0.57025942,4.79857245 L0.669178125,4.79131538 L2.24174672,4.79131538 L2.24174672,3.34589063 C2.24235317,1.55991693 3.64189482,0.101058443 5.40409012,0.00503004308 L5.58763734,0 L21.4003164,0 Z" id="Combined-Shape" stroke-width="0.2" fill="#000000" fill-rule="nonzero"></path>
                            <rect id="Rectangle" stroke-width="1.3" x="19.2328748" y="10.8215075" width="6.194795" height="2.58123312"></rect>
                        </g>
                    </g>
                </g>
            </g>
        </g>
    </g>
</svg>