<?xml version="1.0" encoding="UTF-8"?>
<svg width="32px" height="32px" viewBox="0 0 32 32" version="1.1" xmlns="http://www.w3.org/2000/svg" xmlns:xlink="http://www.w3.org/1999/xlink">
    <title>82508E11-9D73-4FDD-9663-9A070A0E6FC6</title>
    <g id="Checkout-Guest" stroke="none" stroke-width="1" fill="none" fill-rule="evenodd">
        <g id="RT_CH_Choose_Delivery" transform="translate(-164.000000, -585.000000)">
            <rect fill="#FFFFFF" x="0" y="0" width="1440" height="2029"></rect>
            <g id="2.-DELIVERY-METHOD" transform="translate(80.000000, 377.000000)">
                <g id="Option" transform="translate(0.000000, 178.000000)">
                    <path d="M0,0 L520,0 L520,117 C520,122.522847 515.522847,127 510,127 L10,127 C4.4771525,127 6.76353751e-16,122.522847 0,117 L0,0 L0,0 Z" id="Rectangle" stroke="#C8C8C8" fill="#FFFFFF"></path>
                    <g id="Icon/-Delivery" transform="translate(84.000000, 30.000000)" fill="#000000" fill-rule="nonzero">
                        <path d="M26.016367,0 C26.4272461,0 26.7878868,0.300633014 26.8865696,0.730384054 L26.8865696,0.730384054 L28.6808018,8.43892289 C28.6987441,8.51408114 28.7077153,8.59309366 28.7077153,8.67210619 C28.7077153,10.2870451 27.9954051,11.7111976 26.9134831,12.5861168 L26.9134831,12.5861168 L26.913,21.963 L28.606799,22.6870627 C28.7954011,22.7674348 28.940554,22.9308087 29.0084735,23.1325803 L29.0358407,23.2364594 C29.083293,23.4860523 29.0117626,23.743812 28.8440134,23.9239867 L28.8440134,23.9239867 L27.6579883,25.1978631 L31.7937516,29.6398702 C32.0687495,29.9352378 32.0687495,30.4138048 31.7937516,30.7091723 L31.7937516,30.7091723 L30.7981927,31.7784743 C30.5231948,32.0738419 30.0776316,32.0738419 29.8026337,31.7784743 L29.8026337,31.7784743 L25.6669173,27.3364169 L24.4808922,28.6102933 C24.312439,28.7897622 24.0704371,28.8643225 23.8407794,28.8163297 C23.6091034,28.7646063 23.416572,28.5918423 23.3292711,28.3555079 L23.3292711,28.3555079 L22.819,26.979 L17.0452059,26.9798859 C16.5853699,26.9798859 16.2059813,26.6076736 16.154129,26.1286402 L16.1480898,26.0163186 L16.1480898,19.2713471 L12.5596254,19.2713471 L12.5596254,26.0163186 C12.5596254,26.5482077 12.1577174,26.9798859 11.6625093,26.9798859 L11.6625093,26.9798859 L2.69134831,26.9798859 C2.19614022,26.9798859 1.7942322,26.5482077 1.7942322,26.0163186 L1.7942322,26.0163186 L1.7942322,12.5861168 C0.712310185,11.7111976 0,10.2870451 0,8.67210619 C0,8.59309366 0.00897116102,8.51408114 0.0269134831,8.43892289 L0.0269134831,8.43892289 L1.82114569,0.730384054 C1.91982846,0.300633014 2.28046913,0 2.69134831,0 L2.69134831,0 Z M21.0822284,11.6264037 C20.3017374,12.7595589 19.085248,13.489943 17.718043,13.489943 C16.3508381,13.489943 15.1343486,12.7595589 14.3538576,11.6264037 C13.5733666,12.7595589 12.3568772,13.489943 10.9896723,13.489943 C9.62246731,13.489943 8.40597788,12.7595589 7.62548687,11.6264037 C6.84499586,12.7595589 5.62850642,13.489943 4.26130149,13.489943 C4.03163976,13.489943 3.80915497,13.4533274 3.58846441,13.4128576 L3.58846441,13.4128576 L3.58846441,25.0527512 L10.7653932,25.0527512 L10.7653932,18.3077797 C10.7653932,17.7758905 11.1673012,17.3442124 11.6625093,17.3442124 L11.6625093,17.3442124 L17.0452059,17.3442124 C17.540414,17.3442124 17.942322,17.7758905 17.942322,18.3077797 L17.942322,18.3077797 L17.942322,25.0527512 L22.105,25.052 L20.4436944,20.5698839 C20.3522338,20.3243619 20.3881999,20.0482708 20.5317206,19.8401253 L20.5997565,19.7553672 C20.7997976,19.5404582 21.0982166,19.4762326 21.358101,19.5877453 L21.358101,19.5877453 L25.119,21.196 L25.1192509,13.4128576 C24.9721238,13.4398375 24.8241993,13.4651043 24.6738826,13.4789511 L24.4464138,13.489943 C23.0792088,13.489943 21.8627194,12.7595589 21.0822284,11.6264037 Z M25.3166164,1.92713471 L3.3928931,1.92713471 L1.79602644,8.78388 C1.84626494,10.3255878 2.93356965,11.5628082 4.26130149,11.5628082 C5.6213295,11.5628082 6.72837077,10.2658466 6.72837077,8.67210619 C6.72837077,8.14021701 7.13027878,7.70853883 7.62548687,7.70853883 C8.12069496,7.70853883 8.52260297,8.14021701 8.52260297,8.67210619 C8.52260297,10.2658466 9.62964424,11.5628082 10.9896723,11.5628082 C12.3497003,11.5628082 13.4567415,10.2658466 13.4567415,8.67210619 C13.4567415,8.14021701 13.8586495,7.70853883 14.3538576,7.70853883 C14.8490657,7.70853883 15.2509737,8.14021701 15.2509737,8.67210619 C15.2509737,10.2658466 16.358015,11.5628082 17.718043,11.5628082 C19.078071,11.5628082 20.1851123,10.2658466 20.1851123,8.67210619 C20.1851123,8.14021701 20.5870203,7.70853883 21.0822284,7.70853883 C21.5774365,7.70853883 21.9793445,8.14021701 21.9793445,8.67210619 C21.9793445,10.2658466 23.0863858,11.5628082 24.4464138,11.5628082 C25.7741456,11.5628082 26.8614503,10.3255878 26.9134831,8.78388 L26.9134831,8.78388 L25.3166164,1.92713471 Z" id="Combined-Shape"></path>
                    </g>
                </g>
            </g>
        </g>
    </g>
</svg>