<?xml version="1.0" encoding="UTF-8"?>
<svg width="28px" height="28px" viewBox="0 0 28 28" version="1.1" xmlns="http://www.w3.org/2000/svg" xmlns:xlink="http://www.w3.org/1999/xlink">
    <title>2DBEA70B-FFE5-4DBA-9F5C-8611EB675ED4</title>
    <g id="Dashboard-&amp;-Account-Pages" stroke="none" stroke-width="1" fill="none" fill-rule="evenodd">
        <g id="Account_Address-Book" transform="translate(-104.000000, -594.000000)">
            <rect fill="#FFFFFF" x="0" y="0" width="1440" height="1721"></rect>
            <g id="Dashboard-TAB" transform="translate(80.000000, 284.000000)">
                <g id="Input-Field/Standard-Inactive" transform="translate(0.000000, 296.000000)">
                    <rect id="Rectangle" stroke="#C8C8C8" fill="#FFFFFF" x="0.5" y="0.5" width="245" height="55" rx="10"></rect>
                    <g id="Icon/24px/Chevron/Right" transform="translate(24.000000, 14.000000)" fill="#000000" fill-rule="nonzero" stroke="#000000">
                        <path d="M20.7083516,1.75 C17.6025391,1.75 15.0373672,4.503636 14,5.80324779 C12.9626328,4.503636 10.3974609,1.75 7.29164844,1.75 C3.27102344,1.75 0,5.278517 0,9.61506305 C0,11.9809975 0.983828125,14.1859422 2.70588281,15.6949347 C2.73092969,15.7362784 2.76171875,15.7743334 2.79759375,15.8085777 L13.5881484,26.0873919 C13.7020625,26.1956059 13.8507578,26.25 14,26.25 C14.1492422,26.25 14.2984844,26.1956059 14.4124531,26.0868699 L25.5618672,15.4480732 L25.6769297,15.3414775 C25.7680937,15.2593643 25.8581094,15.1761549 25.9588984,15.0696114 C26.0010625,15.0299382 26.0357891,14.9853058 26.0625859,14.9369149 C27.3130156,13.4752692 28,11.5900073 28,9.61506305 C28,5.278517 24.7290312,1.75 20.7083516,1.75 Z M25.0918828,14.3104953 C25.0759141,14.3284527 25.0610938,14.3474541 25.0480234,14.3670297 C24.9933359,14.4268527 24.9335078,14.4795764 24.8742813,14.5334485 L13.9994531,24.90633 L3.75522656,15.1473396 C3.72219531,15.0853241 3.67603906,15.0287897 3.61965625,14.9814951 C2.06046094,13.6818833 1.16664844,11.7259404 1.16664844,9.61506305 C1.16664844,5.89240818 3.91414844,2.86366958 7.29164844,2.86366958 C10.6310313,2.86366958 13.4810156,7.02132064 13.5095078,7.06318634 C13.7248672,7.38072886 14.2751328,7.38072886 14.4904922,7.06318634 C14.5189844,7.02132064 17.3689688,2.86366958 20.7083516,2.86366958 C24.0858516,2.86366958 26.8333516,5.89246038 26.8333516,9.61506305 C26.8333516,11.3692466 26.2146719,13.0369843 25.0918828,14.3104953 Z" id="Shape"></path>
                    </g>
                </g>
            </g>
        </g>
    </g>
</svg>