<?xml version="1.0" encoding="UTF-8"?>
<svg width="32px" height="33px" viewBox="0 0 32 33" version="1.1" xmlns="http://www.w3.org/2000/svg" xmlns:xlink="http://www.w3.org/1999/xlink">
    <title>E825A169-AF76-480E-9CE8-15AB31F6FE2E</title>
    <g id="Dashboard-&amp;-Account-Pages" stroke="none" stroke-width="1" fill="none" fill-rule="evenodd">
        <g id="My-Account_Orders" transform="translate(-912.000000, -879.000000)">
            <rect fill="#FFFFFF" x="0" y="0" width="1440" height="2151"></rect>
            <g id="Order-List-1" transform="translate(478.000000, 688.500000)" fill-rule="nonzero">
                <g id="Group-2" transform="translate(314.000000, 116.500000)">
                    <g id="Icon/24px/Circle-Confirmation-Tick" transform="translate(120.000000, 74.500000)">
                        <path d="M16,0 C7.168,0 0,7.168 0,16 C0,24.832 7.168,32 16,32 C24.832,32 32,24.832 32,16 C32,7.168 24.832,0 16,0 Z" id="Shape" fill="#3C3C41"></path>
                        <g id="exchange-(1)" transform="translate(7.925000, 7.500000)" fill="#FFFFFF">
                            <path d="M15.4159102,3.67047345 L2.50635385,3.67047345 L4.92361368,1.25316469 C5.21030021,0.966527096 5.21030021,0.501701437 4.92361368,0.215014901 C4.63697608,-0.0716716338 4.17215042,-0.0716716338 3.88546389,0.215014901 L0.215014901,3.88546389 C-0.0716716338,4.17210148 -0.0716716338,4.63692714 0.215014901,4.92361368 L3.88546389,8.59406266 C4.02880715,8.73740593 4.2166852,8.80910203 4.40456325,8.80910203 C4.5924413,8.80910203 4.78031935,8.73740593 4.92361368,8.59406266 C5.21030021,8.30742506 5.21030021,7.84259941 4.92361368,7.55591287 L2.50635385,5.13865305 L15.4159102,5.13865305 C15.8213235,5.13865305 16.15,4.80997658 16.15,4.40456325 C16.15,3.99914993 15.8213235,3.67047345 15.4159102,3.67047345 Z" id="XMLID_17_"></path>
                            <path d="M12.2645116,8.40591287 C11.977874,8.11927527 11.5130484,8.11927527 11.2263619,8.40591287 C10.9396753,8.69255047 10.9396753,9.15737613 11.2263619,9.44406266 L13.6436706,11.8613714 L0.734114266,11.8613714 C0.328700941,11.8613714 2.44696603e-05,12.1900479 2.44696603e-05,12.5954612 C2.44696603e-05,13.0008745 0.328700941,13.329551 0.734114266,13.329551 L13.6436706,13.329551 L11.2264108,15.7468598 C10.9397243,16.0334974 10.9397243,16.498323 11.2264108,16.7850096 C11.3697051,16.9283039 11.5575832,17 11.7454612,17 C11.9333393,17 12.1212173,16.9283039 12.2645116,16.7849606 L15.9349606,13.1145116 C16.2216472,12.827874 16.2216472,12.3630484 15.9349606,12.0763619 L12.2645116,8.40591287 Z" id="XMLID_18_"></path>
                        </g>
                    </g>
                </g>
            </g>
        </g>
    </g>
</svg>