<?xml version="1.0" encoding="UTF-8"?>
<svg width="32px" height="32px" viewBox="0 0 32 32" version="1.1" xmlns="http://www.w3.org/2000/svg" xmlns:xlink="http://www.w3.org/1999/xlink">
    <title>7C1433D5-7A91-4980-8DF3-E892BDCEE5C4</title>
    <g id="Checkout-Guest" stroke="none" stroke-width="1" fill="none" fill-rule="evenodd">
        <g id="RT_CH_Choose_Delivery" transform="translate(-164.000000, -459.000000)">
            <rect fill="#FFFFFF" x="0" y="0" width="1440" height="2029"></rect>
            <g id="2.-DELIVERY-METHOD" transform="translate(80.000000, 377.000000)">
                <g id="Option" transform="translate(0.000000, 52.000000)">
                    <path d="M10,0 L510,0 C515.522847,-1.01453063e-15 520,4.4771525 520,10 L520,127 L520,127 L0,127 L0,10 C-6.76353751e-16,4.4771525 4.4771525,1.01453063e-15 10,0 Z" id="Rectangle" stroke="#C8C8C8" fill="#FFFFFF"></path>
                    <g id="Icon/-Delivery" transform="translate(84.000000, 30.000000)" fill="#000000" fill-rule="nonzero">
                        <g id="Icon-/-Home-Delivery" transform="translate(1.000000, 1.000000)">
                            <path d="M27.6739782,15.5905733 L27.6739782,0.946022277 C27.6739782,0.423565707 27.2788557,0 26.791483,0 L3.14755584,0 C2.6601832,0 2.26506071,0.423565707 2.26506071,0.946022277 L2.26506071,16.7580278 C1.83934506,16.8245016 1.42316036,17.0016601 1.05498339,17.2946747 C-0.105674206,18.1769351 -0.380189025,20.1513467 0.592026444,21.3690035 L4.56696101,26.5347266 C7.0274751,29.6217234 9.64124918,29.9999716 13.5269341,29.9999716 C16.8614125,29.9999716 18.3521821,30.0157101 21.2582386,29.3058781 L24.0879886,28.5803421 C24.5468273,29.2672173 25.2752387,29.7121631 26.0941354,29.7121631 L27.4881247,29.7121631 C28.8731714,29.7121631 30,28.439637 30,26.8754838 L30,18.4187384 C30,16.9252215 28.9724815,15.6984198 27.6739782,15.5905733 Z M23.7073391,17.5366041 L22.5315025,16.8963993 C20.598191,15.8502879 18.3629485,15.8115641 16.3991027,16.7903187 C15.8633105,17.0162288 14.6947105,17.7741819 14.088554,17.7488285 L10.0083671,17.7488285 C8.65497262,17.7488285 7.55385403,18.9291489 7.55385403,20.3800318 L7.55385403,21.0699343 C7.54626457,21.061357 7.53832211,21.0532212 7.53085032,21.0445178 L4.61714557,17.6541632 C4.44082304,17.4490025 4.2427323,17.277331 4.03010981,17.1395901 L4.03010981,7.75385085 L11.2520381,7.75385085 L11.2520381,11.2217162 C11.2520381,11.7441728 11.6471606,12.1677385 12.1345333,12.1677385 L17.7031364,12.1677385 C18.190509,12.1677385 18.5856315,11.7441728 18.5856315,11.2217162 L18.5856315,7.75385085 L25.9090467,7.75385085 L25.9090467,15.5905102 C24.8779394,15.6759045 24.0181538,16.466653 23.7073391,17.5366041 L23.7073391,17.5366041 Z M13.0169695,7.75385085 L16.8205824,7.75385085 L16.8205824,10.275694 L13.0169695,10.275694 L13.0169695,7.75385085 Z M25.9090467,5.8618063 L18.5856315,5.8618063 L18.5856315,1.89204455 L25.9090467,1.89204455 L25.9090467,5.8618063 L25.9090467,5.8618063 Z M16.8206412,1.89204455 L16.8206412,5.86186937 L13.0170284,5.86186937 L13.0170284,1.89204455 L16.8206412,1.89204455 Z M11.2519793,1.89204455 L11.2519793,5.86186937 L4.03005097,5.86186937 L4.03005097,1.89204455 L11.2519793,1.89204455 Z M20.8486432,27.4654233 C18.164093,28.1245485 16.5473031,28.0978707 13.5585862,28.0978707 C9.91093969,28.0978707 8.14847925,28.0346764 5.92859216,25.3306925 L1.9536576,20.1649694 C1.26225208,19.1998374 2.5145715,18.0605113 3.31905406,18.9360234 L6.23275882,22.3264411 C7.00282407,23.1974753 7.97186255,23.6768563 9.16623146,23.7050478 L17.2444742,23.7050478 C17.7318469,23.7050478 18.1269694,23.2814821 18.1269694,22.7590255 C18.1269694,22.236569 17.7318469,21.8130032 17.2444742,21.8130032 L9.31878545,21.8130032 L9.31878545,20.3799056 C9.31878545,19.9723592 9.62807058,19.6407469 10.0083083,19.6407469 L14.0884951,19.6407469 C15.0077021,19.7113202 16.3344452,18.888533 17.1431638,18.5058986 C18.613989,17.7727944 20.2881411,17.8018057 21.7341976,18.5842292 L23.5823777,19.5905446 L23.5823777,26.7644208 L20.8486432,27.4654233 Z M28.2350686,26.8754207 C28.2350686,27.3963006 27.9000146,27.8200555 27.4881835,27.8200555 L26.0941942,27.8200555 C25.6823632,27.8200555 25.347368,27.3963006 25.347368,26.8754207 L25.347368,18.4187384 C25.347368,17.8978585 25.682422,17.4740405 26.0941942,17.4740405 L27.4881835,17.4740405 C27.9000146,17.4740405 28.2350686,17.8977955 28.2350686,18.4187384 L28.2350686,26.8754207 Z" id="Shape" transform="translate(15.000000, 15.000000) scale(-1, 1) translate(-15.000000, -15.000000) "></path>
                        </g>
                    </g>
                </g>
            </g>
        </g>
    </g>
</svg>