<?xml version="1.0" encoding="UTF-8"?>
<svg width="32px" height="32px" viewBox="0 0 32 32" version="1.1" xmlns="http://www.w3.org/2000/svg" xmlns:xlink="http://www.w3.org/1999/xlink">
    <title>AAE37843-1E6B-4889-9D79-7767846FF5A9</title>
    <g id="Dashboard-&amp;-Account-Pages" stroke="none" stroke-width="1" fill="none" fill-rule="evenodd">
        <g id="My-Account_Orders" transform="translate(-598.000000, -547.000000)">
            <rect fill="#FFFFFF" x="0" y="0" width="1440" height="2151"></rect>
            <g id="Order-List-1" transform="translate(478.000000, 356.000000)" fill-rule="nonzero">
                <g id="Group-2" transform="translate(0.000000, 116.500000)">
                    <g id="Icon/24px/Circle-Confirmation-Tick" transform="translate(120.000000, 74.500000)">
                        <path d="M16,0 C7.168,0 0,7.168 0,16 C0,24.832 7.168,32 16,32 C24.832,32 32,24.832 32,16 C32,7.168 24.832,0 16,0 Z" id="Shape" fill="#3C3C41"></path>
                        <path d="M23.9011303,13.6504983 C23.8659116,13.6016682 23.7698236,13.5183381 23.67414,13.4856799 L18.4521055,11.7375897 L19.431807,10.3095678 C19.5058382,10.2016655 19.5355765,10.0669896 19.5038167,9.94004039 C19.4522464,9.7339837 19.2699085,9.59760085 19.0672659,9.59760085 L17.7875761,9.59760085 L17.7875761,4.94921886 C17.7875761,4.70111528 17.5864608,4.5 17.3383572,4.5 L14.5450245,4.5 C14.2969209,4.5 14.0958057,4.70111528 14.0958057,4.94921886 L14.0958057,9.59755593 L12.8264479,9.59755593 C12.6956354,9.59755593 12.5678326,9.6492161 12.4811334,9.74714581 C12.3403931,9.90621421 12.3310494,10.1338334 12.44569,10.3008979 L13.4531082,11.7693045 L8.32630816,13.4855002 C8.23673392,13.5084553 8.13395265,13.6017581 8.09886865,13.6504534 L6.20860062,16.2551591 C6.10370801,16.3996728 6.09216309,16.5965205 6.19067678,16.756712 C6.23847367,16.8344268 6.31156158,16.8933643 6.39435261,16.9316827 L8.01401121,17.6817434 C8.01392137,17.6850227 8.01387645,17.688302 8.01387645,17.6915813 L8.01387645,23.769782 C8.01387645,23.9485711 8.11984717,24.1102899 8.28376714,24.1816708 L15.8206713,27.4632595 C15.9349526,27.5122244 16.0647768,27.5122244 16.1790581,27.4633943 L23.7162318,24.1816708 C23.8801069,24.1102899 23.9861225,23.9485262 23.9861225,23.769782 L23.9861225,17.7006106 L25.6092401,16.9301104 C25.6910878,16.891253 25.7633222,16.8322257 25.8104452,16.7547803 C25.907791,16.5949033 25.8958417,16.3990888 25.7913983,16.2551591 L23.9011303,13.6504983 Z M14.5450245,10.4960386 C14.7931281,10.4960386 14.9942434,10.2948784 14.9942434,10.0468197 L14.9942434,5.39843772 L16.8891384,5.39843772 L16.8891384,10.0467748 C16.8891384,10.2948784 17.0902986,10.4959936 17.3383572,10.4959936 L18.2142891,10.4959936 L15.9417358,13.8084437 L13.6691376,10.4959936 L14.5450245,10.4959936 L14.5450245,10.4960386 Z M15.571265,14.8567408 C15.6550443,14.9788385 15.7936283,15.0518366 15.9416909,15.0518366 C16.0897983,15.0518366 16.2283374,14.9788385 16.3121167,14.8567408 L17.9234648,12.5080449 L22.2988565,13.972723 L15.9999995,16.7760733 L9.70114248,13.9727679 L13.9816591,12.5398496 L15.571265,14.8567408 Z M8.61290979,14.4718501 L15.2865052,17.4419504 L13.7619462,19.3535114 L7.25653837,16.3408251 L8.61290979,14.4718501 Z M8.91231416,18.097765 L13.7044013,20.316996 C13.7650907,20.3450722 13.829329,20.3586386 13.8929833,20.3586386 C14.0264463,20.3586386 14.1569443,20.2990722 14.2443623,20.1894628 L15.5507806,18.551521 L15.5507806,26.3658178 L8.91231416,23.4754538 L8.91231416,18.097765 Z M17.968791,19.5909685 C17.7446757,19.6973885 17.6491718,19.9653026 17.7555917,20.1894628 C17.8619667,20.4135781 18.1299258,20.5089922 18.354086,20.4026621 L23.0876848,18.1271439 L23.0876848,23.4754538 L16.4492183,26.3658178 L16.4492183,18.551521 L17.7555917,20.1894628 C17.8443574,20.3007343 17.97508,20.3586386 18.1071055,20.3585937 C18.2053047,20.3585937 18.3041778,20.3265644 18.3869239,20.2605741 C18.5808966,20.1058632 18.6127462,19.8231697 18.4580352,19.629242 L16.7134938,17.4419055 L23.3870892,14.4718052 L24.7465602,16.3450478 L17.968791,19.5909685 Z" id="Shape" fill="#FFFFFF"></path>
                    </g>
                </g>
            </g>
        </g>
    </g>
</svg>