<?xml version="1.0" encoding="UTF-8"?>
<svg width="32px" height="33px" viewBox="0 0 32 33" version="1.1" xmlns="http://www.w3.org/2000/svg" xmlns:xlink="http://www.w3.org/1999/xlink">
    <title>A158C7E3-61A6-453E-95C6-A1A33B9C4722</title>
    <g id="Dashboard-&amp;-Account-Pages" stroke="none" stroke-width="1" fill="none" fill-rule="evenodd">
        <g id="My-Account_Orders" transform="translate(-1226.000000, -879.000000)">
            <rect fill="#FFFFFF" x="0" y="0" width="1440" height="2151"></rect>
            <g id="Order-List-1" transform="translate(478.000000, 688.500000)" fill-rule="nonzero">
                <g id="Group-2" transform="translate(628.000000, 116.500000)">
                    <g id="Icon/24px/Circle-Confirmation-Tick" transform="translate(120.000000, 74.500000)">
                        <path d="M16,0 C7.168,0 0,7.168 0,16 C0,24.832 7.168,32 16,32 C24.832,32 32,24.832 32,16 C32,7.168 24.832,0 16,0 Z" id="Shape" fill="#3C3C41"></path>
                        <path d="M27.0827792,20.7593105 C26.9563759,19.4589275 26.290525,18.275448 25.2078991,17.4268459 C24.7903433,17.0995596 24.316136,16.8260184 23.7932153,16.6081746 L23.7932153,10.7449559 C23.7932153,10.6209818 23.7271074,10.5064207 23.6197036,10.4444337 L14.5177166,5.18941669 C14.4103563,5.12742965 14.2780536,5.12742965 14.1706933,5.18941669 L5.06870627,10.4444337 C4.96130256,10.5064207 4.89519462,10.6209818 4.89519462,10.7449559 L4.89519462,21.2550333 C4.89519462,21.3790074 4.96130256,21.4935684 5.06870627,21.5555555 L14.1706933,26.8105725 C14.2243518,26.8415443 14.2843001,26.8570736 14.344205,26.8570736 C14.4041099,26.8570736 14.4640581,26.8415877 14.5177166,26.8105725 L23.6197036,21.5555555 C23.6910603,21.5143464 23.743591,21.4497133 23.7712227,21.3747563 C24.0079793,21.6802236 24.1719478,22.0226488 24.2493774,22.383553 C24.5355849,23.7169032 23.673232,25.0132521 21.998888,25.766683 C21.8381295,25.8390374 21.7571429,26.0204438 21.8106279,26.1884465 C21.8571724,26.33463 21.9926416,26.4302349 22.1410374,26.4301916 C22.1632035,26.4301916 22.1856299,26.428066 22.2080997,26.4236415 C23.8145138,26.1084142 25.1292983,25.3610996 26.0102603,24.2624672 C26.8229889,23.2491158 27.2038469,22.004994 27.0827792,20.7593105 L27.0827792,20.7593105 Z M14.344205,15.5992911 L11.8070309,14.1344625 L20.2149714,9.2801272 L22.7521454,10.7449559 L14.344205,15.5992911 Z M9.16744169,12.6105097 L17.5753822,7.75617443 L19.5209248,8.87944543 L11.1129844,13.7337807 L9.16744169,12.6105097 Z M10.7660045,14.334825 L10.7659611,17.6720612 L8.82046178,16.5488336 L8.8204184,13.211554 L10.7660045,14.334825 Z M14.344205,5.890664 L16.8813356,7.35549267 L8.47339512,12.2097845 L5.93626449,10.7449559 L14.344205,5.890664 Z M5.5892412,11.3460436 L8.12637183,12.8108723 L8.12641521,16.7491962 C8.12641521,16.8731702 8.19252314,16.9877313 8.29992685,17.0497183 L10.9394727,18.5736277 C10.9931312,18.6045995 11.0530795,18.6201288 11.1129844,18.6201288 C11.1728893,18.6201288 11.2328375,18.6046429 11.286496,18.5736277 C11.3938997,18.5116407 11.4600077,18.3970796 11.4600077,18.2731056 L11.460051,14.7355502 L13.9971817,16.2003788 L13.9971817,25.9090493 L5.5892412,21.0547141 L5.5892412,11.3460436 Z M14.6912282,25.909006 L14.6912282,16.2003788 L23.0992121,11.3460436 L23.0992121,16.3604 C22.3774037,16.1426862 21.5807683,16.0181482 20.7249655,15.9917745 L20.7249655,14.8694578 C20.7249655,14.7346826 20.6469287,14.6120533 20.5248198,14.5550547 C20.4026676,14.4980127 20.2585228,14.5168387 20.1551967,14.6033343 L16.1432171,17.9612184 C16.0614497,18.0296687 16.0157294,18.1318671 16.0191129,18.2384466 C16.0225397,18.3450261 16.0747233,18.4441013 16.1606984,18.5071294 L20.172678,21.4505375 C20.278173,21.5279237 20.4181536,21.5394189 20.5347968,21.4802948 C20.65144,21.4212141 20.7250089,21.3015344 20.7250089,21.17075 L20.7250089,20.0040577 C21.6439699,20.0534218 22.4512329,20.3006325 23.0759182,20.7264734 C23.0838563,20.7318957 23.0913607,20.7376216 23.0992121,20.7430872 L23.0992121,21.0547141 L14.6912282,25.909006 Z M24.2823446,24.8889744 C24.3681027,24.7769726 24.44653,24.661891 24.517583,24.5438164 C24.9541383,23.818234 25.0960708,23.0208613 24.9280248,22.2379334 C24.7514767,21.415358 24.2325468,20.6748971 23.4667965,20.1529307 C22.648906,19.5954378 21.5807683,19.3007283 20.3779422,19.3007283 C20.1862986,19.3007283 20.0309189,19.4561079 20.0309189,19.6477516 L20.0309189,20.4856827 L16.928097,18.2092533 L20.0309189,15.6123479 L20.0309189,16.3334189 C20.0309189,16.5250625 20.1862986,16.6804422 20.3779422,16.6804422 C24.5195784,16.6804422 26.2061116,18.9137973 26.3920293,20.8263294 C26.5281926,22.2279131 25.8898866,23.8607878 24.2823446,24.8889744 L24.2823446,24.8889744 Z" id="Shape" fill="#FFFFFF"></path>
                    </g>
                </g>
            </g>
        </g>
    </g>
</svg>