<?xml version="1.0" encoding="UTF-8"?>
<svg width="16px" height="16px" viewBox="0 0 16 16" version="1.1" xmlns="http://www.w3.org/2000/svg" xmlns:xlink="http://www.w3.org/1999/xlink">
    <title>DA618CF2-D277-4F67-B09C-6AF3A125405B</title>
    <g id="Dashboard-&amp;-Account-Pages" stroke="none" stroke-width="1" fill="none" fill-rule="evenodd">
        <g id="Account_Address-Book_Add-New" transform="translate(-1319.000000, -414.000000)">
            <rect fill="#FFFFFF" x="0" y="0" width="1440" height="1970"></rect>
            <g id="Map" transform="translate(927.000000, 342.000000)">
                <g id="Input-Field/Standard-Active-/-Drop-Down" transform="translate(0.000000, 52.000000)">
                    <rect id="Rectangle" stroke="#C8C8C8" fill="#FFFFFF" x="0.5" y="0.5" width="431" height="55" rx="12"></rect>
                    <g id="Icon/24px/Chevron/Down" transform="translate(392.000000, 20.000000)" fill="#000000" fill-rule="nonzero">
                        <path d="M8,0 C8.276,0 8.5,0.224 8.5,0.5 L8.5,0.5 L8.5,2.025 C11.41,2.267 13.733,4.59 13.975,7.5 L13.975,7.5 L15.5,7.5 C15.776,7.5 16,7.725 16,8 C16,8.277 15.776,8.5 15.5,8.5 L15.5,8.5 L13.975,8.5 C13.733,11.41 11.41,13.733 8.5,13.975 L8.5,13.975 L8.5,15.5 C8.5,15.776 8.276,16 8,16 C7.724,16 7.5,15.776 7.5,15.5 L7.5,15.5 L7.5,13.975 C4.59,13.733 2.267,11.41 2.025,8.5 L2.025,8.5 L0.5,8.5 C0.224,8.5 0,8.276 0,8 C0,7.724 0.224,7.5 0.5,7.5 L0.5,7.5 L2.025,7.5 C2.267,4.591 4.59,2.267 7.5,2.025 L7.5,2.025 L7.5,0.5 C7.5,0.224 7.724,0 8,0 Z M8,3 C5.243,3 3,5.243 3,8 C3,10.757 5.243,13 8,13 C10.757,13 13,10.757 13,8 C13,5.243 10.757,3 8,3 Z M8,5 C9.654,5 11,6.346 11,8 C11,9.654 9.654,11 8,11 C6.346,11 5,9.654 5,8 C5,6.346 6.346,5 8,5 Z M8,6 C6.897,6 6,6.897 6,8 C6,9.103 6.897,10 8,10 C9.103,10 10,9.103 10,8 C10,6.897 9.103,6 8,6 Z" id="Combined-Shape"></path>
                    </g>
                </g>
            </g>
        </g>
    </g>
</svg>