<?xml version="1.0" encoding="UTF-8"?>
<svg width="28px" height="28px" viewBox="0 0 28 28" version="1.1" xmlns="http://www.w3.org/2000/svg" xmlns:xlink="http://www.w3.org/1999/xlink">
    <title>16ABA6E1-FA41-494F-AED6-AEC4188BFAAF</title>
    <g id="Dashboard-&amp;-Account-Pages" stroke="none" stroke-width="1" fill="none" fill-rule="evenodd">
        <g id="Account_Address-Book" transform="translate(-104.000000, -670.000000)">
            <rect fill="#FFFFFF" x="0" y="0" width="1440" height="1721"></rect>
            <g id="Dashboard-TAB" transform="translate(80.000000, 284.000000)">
                <g id="Input-Field/Standard-Inactive" transform="translate(0.000000, 372.000000)">
                    <rect id="Rectangle" stroke="#C8C8C8" fill="#FFFFFF" x="0.5" y="0.5" width="245" height="55" rx="10"></rect>
                    <g id="Icon/24px/Chevron/Right" transform="translate(24.000000, 14.000000)" fill="#000000" fill-rule="nonzero">
                        <g id="favorites" transform="translate(0.064048, 2.187500)">
                            <path d="M25.7057484,10.7732635 C26.2104372,10.281313 26.3886107,9.55931022 26.1708612,8.88902294 C25.9530573,8.21873566 25.3845135,7.73941466 24.687062,7.63810672 L18.5884439,6.75192085 C18.4687362,6.73455533 18.3652507,6.65937733 18.3116844,6.55082922 L15.5843179,1.02462009 C15.2724463,0.392602278 14.640864,0 13.9360634,0 C13.2312628,0 12.5996805,0.392602278 12.2878088,1.02462009 L9.56044241,6.55088366 C9.5068216,6.65937733 9.40339061,6.73455533 9.28362841,6.75197529 L3.18511925,7.63810672 C2.48766773,7.73941466 1.91917832,8.21873566 1.70131998,8.88902294 C1.48346165,9.55931022 1.66168958,10.281313 2.16643283,10.7732635 L6.57939785,15.0748496 C6.6660077,15.1593364 6.70558366,15.2810039 6.68511521,15.4002762 L5.64334735,21.4741797 C5.5242384,22.1688549 5.80437308,22.8576509 6.37455004,23.2719192 C6.94472701,23.6862964 7.68659942,23.7398084 8.31034275,23.4119321 L13.7650212,20.5442262 C13.8721539,20.4878835 14.0000273,20.4878835 14.1072145,20.5442262 L19.5619473,23.4119321 C19.8332632,23.554558 20.1268439,23.625 20.4190092,23.625 C20.7984377,23.625 21.1754709,23.5061088 21.4975767,23.2718648 C22.0677537,22.857542 22.3479428,22.1686916 22.2287794,21.4741252 L21.1870116,15.4002218 C21.1665976,15.2809495 21.2061191,15.159282 21.2927289,15.0747952 L25.7057484,10.7732635 Z M19.7378345,15.6488916 L20.7796023,21.722904 C20.8144422,21.9261731 20.6889641,22.0420703 20.6333836,22.0824083 C20.5777486,22.122692 20.4286991,22.2063622 20.246225,22.1103347 L14.7914921,19.2426288 C14.5237148,19.1019082 14.2299707,19.0314662 13.9361723,19.0314662 C13.6423738,19.0314662 13.3485753,19.1019082 13.0808524,19.2425743 L7.62617395,22.1102258 C7.44359102,22.2061989 7.29459595,22.1226376 7.2390154,22.0822995 C7.18343485,22.0419614 7.05790229,21.9260642 7.09279664,21.7227951 L8.1345645,15.6488916 C8.23685231,15.0525303 8.03929911,14.4443561 7.60592325,14.0219765 L3.19295823,9.72039038 C3.04526966,9.57634911 3.0786942,9.40884534 3.09997921,9.3435205 C3.12115535,9.27814123 3.19263161,9.1229403 3.39671729,9.09332637 L9.49517201,8.2071405 C10.0939286,8.12014959 10.6113557,7.74431402 10.8791876,7.20162793 L13.606554,1.67536435 C13.6978455,1.49044062 13.8674723,1.47046211 13.9362267,1.47046211 C14.0048722,1.47046211 14.1744991,1.49038619 14.265845,1.67536435 L14.265845,1.67541879 L16.9932114,7.20168236 C17.2609888,7.74436846 17.7783615,8.12020403 18.3771181,8.20719494 L24.4756817,9.09338081 C24.6797674,9.12299473 24.7511892,9.27819566 24.7724198,9.34357494 C24.7936503,9.40895421 24.8271293,9.57651242 24.6793863,9.72044482 L20.2664213,14.022031 C19.8330999,14.4443561 19.6355467,15.0525303 19.7378345,15.6488916 Z" id="Shape" stroke="#000000" stroke-width="0.4"></path>
                            <path d="M22.5252453,1.02423903 C22.1966614,0.785585618 21.7369378,0.858422813 21.4982844,1.18689788 L20.7178159,2.26105597 C20.4791625,2.58953103 20.5519453,3.04936345 20.8804748,3.28801686 C21.01107,3.38279232 21.1622426,3.42846526 21.3120542,3.42846526 C21.5394391,3.42846526 21.7636121,3.32334671 21.9074357,3.12541245 L22.6879042,2.05125436 C22.9265576,1.72272486 22.8537748,1.26289244 22.5252453,1.02423903 Z" id="Path"></path>
                            <path d="M7.15088131,2.25670098 L6.3704128,1.18254289 C6.13181383,0.854176699 5.67203584,0.781339504 5.34345191,1.01988404 C5.01497685,1.25853745 4.94213965,1.71836987 5.18079306,2.04684493 L5.96126157,3.12100303 C6.10513952,3.3191006 6.32931259,3.42416471 6.5567519,3.42416471 C6.70661797,3.42416471 6.85784497,3.37849176 6.9882769,3.28366187 C7.31675196,3.0450629 7.38958916,2.58523048 7.15088131,2.25670098 Z" id="Path"></path>
                            <path d="M2.69746933,16.495556 C2.5719912,16.1094318 2.15723292,15.8980515 1.77099981,16.0235296 L0.508216249,16.4338785 C0.121983143,16.5593566 -0.089288272,16.9742237 0.0361898549,17.360348 C0.13711673,17.6711309 0.425362579,17.8686297 0.7352745,17.8686297 C0.810561376,17.8686297 0.887154749,17.8569256 0.962659375,17.8323744 L2.22544294,17.4220255 C2.61162161,17.2965474 2.82294746,16.8817891 2.69746933,16.495556 Z" id="Path"></path>
                            <path d="M27.3636928,16.4349128 L26.1009092,16.0245639 C25.7148394,15.8991947 25.2999178,16.1104116 25.1744397,16.4966447 C25.0489616,16.8828778 25.260233,17.2976361 25.6464661,17.4231143 L26.9092497,17.8334631 C26.9847543,17.8579599 27.0612932,17.8696095 27.1365801,17.8696095 C27.4465465,17.8696095 27.7347923,17.6720563 27.8357192,17.3613278 C27.9611973,16.9751492 27.7498715,16.5603909 27.3636928,16.4349128 Z" id="Path"></path>
                        </g>
                    </g>
                </g>
            </g>
        </g>
    </g>
</svg>