<?xml version="1.0" encoding="UTF-8"?>
<svg width="28px" height="28px" viewBox="0 0 28 28" version="1.1" xmlns="http://www.w3.org/2000/svg" xmlns:xlink="http://www.w3.org/1999/xlink">
    <title>FB85BF8F-65C3-4CD5-B801-BA4ED275AFBE</title>
    <g id="Dashboard-&amp;-Account-Pages" stroke="none" stroke-width="1" fill="none" fill-rule="evenodd">
        <g id="Account_Address-Book" transform="translate(-104.000000, -442.000000)">
            <rect fill="#FFFFFF" x="0" y="0" width="1440" height="1721"></rect>
            <g id="Dashboard-TAB" transform="translate(80.000000, 284.000000)">
                <g id="Input-Field/Standard-Inactive" transform="translate(0.000000, 144.000000)">
                    <rect id="Rectangle" stroke="#C8C8C8" fill="#FFFFFF" x="0.5" y="0.5" width="245" height="55" rx="10"></rect>
                    <g id="Icon/24px/Chevron/Right" transform="translate(24.000000, 14.000000)" fill="#000000" fill-rule="nonzero" stroke="#000000" stroke-width="0.7">
                        <path d="M13.8467311,0.0353734329 C13.9434921,-0.0117911443 14.0566359,-0.0117911443 14.1533329,0.0353734329 L14.1533329,0.0353734329 L27.8034143,6.68538683 C27.806998,6.68711471 27.8090459,6.69044247 27.8125016,6.69229833 C27.8190291,6.69575408 27.8262606,6.69735396 27.8325961,6.70125768 C27.86165,6.71898439 27.8866082,6.74125478 27.9088146,6.76589299 C27.9136783,6.7712686 27.917006,6.77734816 27.9214857,6.78297975 C27.9429241,6.8098578 27.9598189,6.83942365 27.972554,6.87135734 L27.972554,6.87135734 L27.9822173,6.89548358 C27.9927765,6.92901715 27.999944,6.96376663 27.999944,6.999988 L27.999944,6.999988 L27.999944,20.6499414 C27.999944,20.7811959 27.9264773,20.9015071 27.8097498,20.9613428 L27.8097498,20.9613428 L14.1597964,27.9613468 C14.1552527,27.9637146 14.1499411,27.9627547 14.1453335,27.9648665 C14.0990008,27.986177 14.0500444,28 14,28 C13.9498916,28 13.9009992,27.986113 13.8546665,27.9648665 C13.8500589,27.9627547 13.8447473,27.9636506 13.8402036,27.9613468 L13.8402036,27.9613468 L0.190250193,20.9613428 C0.0735226644,20.9015071 5.59959365e-05,20.7811959 5.59959365e-05,20.6499414 L5.59959365e-05,20.6499414 L5.59959365e-05,6.999988 C5.59959365e-05,6.96376663 0.00722347578,6.92901715 0.0179107002,6.89541959 L0.0179107002,6.89541959 L0.0276379943,6.87129334 C0.0403090747,6.83935966 0.057267844,6.8097938 0.0787062882,6.78291575 C0.0831859631,6.77728416 0.0865137216,6.7712046 0.0913773686,6.76582899 C0.113583757,6.74125478 0.138541946,6.7189204 0.167595837,6.70119368 C0.173995373,6.69728997 0.181226848,6.69562609 0.18781837,6.69217034 C0.191274119,6.69037847 0.193257975,6.68705071 0.19677772,6.68532284 L0.19677772,6.68532284 Z M0.700037197,7.57281043 L0.700037197,20.4361329 L13.6499454,27.077059 L13.6499454,14.2137365 L9.62239769,12.1483504 L9.62239769,17.7542156 C9.62239769,17.7714943 9.61497423,17.7863412 9.6125424,17.802916 C9.60921465,17.8262743 9.60671883,17.8489927 9.5988474,17.8708151 C9.59116796,17.8922535 9.57977678,17.9106202 9.56825762,17.9298828 C9.55680245,17.9491454 9.54624322,17.967896 9.5313323,17.9846628 C9.51629339,18.0015576 9.49875866,18.0143567 9.48077597,18.0280517 C9.46304925,18.0415547 9.44634647,18.0548657 9.42605994,18.064913 C9.40513346,18.0752803 9.38267109,18.0805279 9.35956876,18.0866074 C9.34356992,18.0908951 9.32987492,18.0998545 9.31291615,18.1018383 L9.31291615,18.1018383 L7.95973435,18.2593949 C7.94623133,18.2609308 7.93253632,18.2617627 7.91922529,18.2617627 C7.80268975,18.2617627 7.69261774,18.2034629 7.62734247,18.1048461 L7.62734247,18.1048461 L6.91110645,17.0218527 L5.93050561,17.1470916 C5.79240364,17.1655863 5.65436565,17.0973672 5.58358679,16.975712 L5.58358679,16.975712 L4.9040841,15.8062609 C4.90030838,15.7997334 4.90043637,15.7923739 4.89710861,15.7857184 C4.88667737,15.7649839 4.88110977,15.7429695 4.87490222,15.7201232 C4.86869467,15.6970208 4.86235913,15.6748785 4.86101523,15.6514562 C4.86056726,15.6441607 4.85679154,15.6379531 4.85679154,15.6304657 L4.85679154,15.6304657 L4.85679154,9.70443174 L0.700037197,7.57281043 Z M27.3000268,7.57281043 L14.3500546,14.2137365 L14.3500546,27.077059 L27.3000268,20.4361329 L27.3000268,7.57281043 Z M23.2196189,12.1868756 C23.3279631,12.1311356 23.4576816,12.1359353 23.5616101,12.1993547 C23.6656665,12.2627741 23.7292139,12.3757259 23.7294059,12.497573 L23.7294059,12.497573 L23.7352299,15.4947955 C23.7354215,15.62637 23.6619548,15.7468732 23.5450353,15.8068369 L23.5450353,15.8068369 L18.6604618,18.3116791 C18.6102254,18.3375332 18.5553814,18.3503323 18.5006654,18.3503323 C18.437438,18.3503323 18.3742106,18.3332455 18.3184706,18.299264 C18.2143502,18.2358446 18.1508028,18.1228928 18.1506108,18.0009816 L18.1506108,18.0009816 L18.1447868,15.0037592 C18.1445952,14.8721847 18.2180619,14.7516814 18.3349814,14.6917178 L18.3349814,14.6917178 Z M5.55677274,10.0633817 L5.55677274,15.5360725 L6.07219133,16.4232401 L7.0386492,16.2998571 C7.17163154,16.2841782 7.30135013,16.342926 7.3748168,16.4540219 L7.3748168,16.4540219 L8.09258871,17.5392552 L8.92241649,17.4426862 L8.92241649,11.7893364 L5.55677274,10.0633817 Z M23.0304486,13.0704595 L18.8451524,15.2167997 L18.8495681,17.4282232 L23.0348643,15.281883 L23.0304486,13.0704595 Z M22.8059529,5.02931502 L9.95971721,11.5346349 L14,13.6066125 L26.8674182,7.00798742 L22.8059529,5.02931502 Z M18.7210654,3.03931543 L5.97773419,9.4926711 L9.18985308,11.1398476 L22.0162502,4.64463893 L18.7210654,3.03931543 Z M14,0.739258351 L1.1327098,7.00798742 L5.20787006,9.09781976 L17.9314267,2.65457535 L14,0.739258351 Z" id="Combined-Shape"></path>
                    </g>
                </g>
            </g>
        </g>
    </g>
</svg>