<?xml version="1.0" encoding="UTF-8"?>
<svg width="28px" height="28px" viewBox="0 0 28 28" version="1.1" xmlns="http://www.w3.org/2000/svg" xmlns:xlink="http://www.w3.org/1999/xlink">
    <title>068FEDE4-413B-40A8-BD52-61394948EB26</title>
    <g id="Dashboard-&amp;-Account-Pages" stroke="none" stroke-width="1" fill="none" fill-rule="evenodd">
        <g id="Account_Address-Book" transform="translate(-104.000000, -1056.000000)">
            <rect fill="#FFFFFF" x="0" y="0" width="1440" height="1721"></rect>
            <g id="Dashboard-TAB" transform="translate(80.000000, 284.000000)">
                <g id="Input-Field/Standard-Inactive" transform="translate(0.000000, 758.000000)">
                    <rect id="Rectangle" stroke="#C8C8C8" fill="#FFFFFF" x="0.5" y="0.5" width="245" height="55" rx="10"></rect>
                    <g id="Icon/24px/Chevron/Right" transform="translate(24.000000, 14.000000)" fill="#000000" fill-rule="nonzero">
                        <g id="email" transform="translate(0.528772, 1.750000)">
                            <path d="M26.942456,8.32658049 C26.942456,7.16658147 26.1721754,6.24369711 25.1668324,5.66475004 C24.9794455,4.62404505 24.3169347,3.64738102 23.2829127,2.89557073 C22.2186857,2.12181708 20.7989446,1.61522523 19.2851679,1.46898874 C19.0677339,1.44841354 18.8753479,1.60696358 18.8543517,1.8238714 C18.8334082,2.04083184 18.992274,2.23369141 19.2092344,2.25474021 C21.6350026,2.48901328 23.6053276,3.6971088 24.2272668,5.24240599 C23.61822,5.03512799 22.9033503,4.91094011 22.1596438,4.91094011 C19.5690635,4.91094011 17.376779,6.38482927 17.376779,8.32658049 C17.376779,8.32658049 17.2970567,9.37802036 18.3060307,10.3593677 C18.0173465,10.3583153 17.7416073,10.3453703 17.4309271,10.3142181 C16.812303,10.2520715 16.7354749,10.1951345 16.5482985,10.2022385 C16.3901168,10.2081848 16.2364606,10.2601753 16.1041164,10.3518954 C16.050021,10.3893623 16.1890482,10.277067 14.5018296,11.6652875 L14.8974416,10.233496 C14.9782164,9.94097035 14.8426095,9.62618564 14.575132,9.48500086 C13.3086787,8.81612281 12.2414522,7.70621992 12.2414522,6.28637354 C12.2414522,4.00126387 14.9266468,2.50616805 17.4441352,2.25684509 C17.661043,2.23537532 17.8194878,2.04209477 17.798018,1.82518695 C17.7764956,1.60827913 17.5830046,1.4499922 17.3663599,1.47135673 C16.5160939,1.5555519 15.7018739,1.75246337 14.9626929,2.04488373 L12.4804086,0.239423451 C12.0414887,-0.0798341276 11.4516489,-0.0797815056 11.0127815,0.239423451 L0.513801055,7.87582057 C0.192017621,8.10977792 0,8.4869723 0,8.88474188 L0,23.252438 C0,23.9403652 0.559687425,24.5 1.24750938,24.5 L22.2458386,24.5 C22.9337658,24.5 23.493348,23.9403126 23.493348,23.252438 L23.493348,17.4145024 C23.493348,17.1965422 23.316696,17.0198375 23.0986831,17.0198375 C22.8806703,17.0198375 22.7040183,17.1965422 22.7040183,17.4145024 L22.7040183,23.252438 C22.7040183,23.4542433 22.5686745,23.6385255 22.3675533,23.6936733 L13.1570747,16.0695371 L20.0720245,11.4033353 C20.9233429,11.6964397 21.8362291,11.7898964 22.7040183,11.7201196 L22.7040183,15.5725751 C22.7040183,15.7905354 22.8806703,15.96724 23.0986831,15.96724 C23.316696,15.96724 23.493348,15.7905354 23.493348,15.5725751 L23.493348,11.7836344 L24.818317,12.8737514 C24.9744464,13.0022017 25.1937222,13.0150414 25.3640596,12.90443 C25.5339759,12.7940817 25.6119091,12.5886981 25.5579716,12.3934179 L25.1694635,10.9873585 C26.2988365,10.3388452 26.942456,9.37702054 26.942456,8.32658049 Z M1.12584735,23.6936207 C0.925883814,23.6388412 0.789382387,23.4556115 0.789382387,23.2523328 L0.789382387,9.62718546 L10.3363259,16.0694845 L1.12584735,23.6936207 Z M21.1500384,23.7105124 L2.34336221,23.7105124 L11.571206,16.072063 C11.6729769,15.9878678 11.820529,15.9878678 11.9222999,16.072063 L12.2475037,16.3412771 C12.2475037,16.3413297 21.1500384,23.7105124 21.1500384,23.7105124 Z M12.5232956,15.5449486 L12.4256292,15.4640686 C12.0322272,15.1384437 11.4611734,15.1384964 11.0678241,15.4640686 L10.9701051,15.5449486 L0.828691009,8.70145951 C0.860948286,8.62789397 0.911570635,8.56259009 0.978032201,8.51423049 L11.4771705,0.877833365 C11.6383517,0.760591584 11.8548911,0.760538962 12.0162301,0.877833365 L14.1418952,2.42397251 C10.5195556,4.37572191 10.604277,8.21086475 14.1072699,10.1296728 L13.493224,12.3522149 C13.4354977,12.5612294 13.5189035,12.7809788 13.7007651,12.8991152 C13.8833107,13.0176199 14.1192677,13.0022017 14.2848691,12.8662265 L16.549351,11.0030399 C16.5607173,10.9937258 16.5745043,10.9894108 16.5872388,10.9917788 C17.3749899,11.1365945 18.2299919,11.1850593 19.078995,11.1211236 L12.5232956,15.5449486 Z M24.6434541,10.3760489 C24.4099704,10.4992896 24.2916235,10.7738711 24.3619791,11.029193 L24.5217921,11.6076138 L23.7887152,11.004408 C23.6299021,10.8738003 23.4237818,10.8201258 23.2231867,10.8571191 C21.0595286,11.2550992 18.4254826,10.2954847 18.183211,8.56532644 C17.9736702,7.07054635 19.7788148,5.70026988 22.1595912,5.70026988 C24.0930808,5.70026988 26.153021,6.74460578 26.153021,8.32652787 C26.153021,9.12243538 25.6028581,9.86945707 24.6434541,10.3760489 Z" id="Shape" stroke="#000000" stroke-width="0.5"></path>
                            <path d="M23.5575468,7.23662133 L20.7617408,7.23662133 C20.5437279,7.23662133 20.3670759,7.41332595 20.3670759,7.63128621 C20.3670759,7.84924647 20.5437279,8.0259511 20.7617408,8.0259511 L23.5575468,8.0259511 C23.7755597,8.0259511 23.9522117,7.84924647 23.9522117,7.63128621 C23.9522117,7.41332595 23.7755597,7.23662133 23.5575468,7.23662133 Z" id="Path"></path>
                            <path d="M23.5575468,8.85474735 L20.7617408,8.85474735 C20.5437279,8.85474735 20.3670759,9.03145197 20.3670759,9.24941223 C20.3670759,9.46737249 20.5437279,9.64407711 20.7617408,9.64407711 L23.5575468,9.64407711 C23.7755597,9.64407711 23.9522117,9.46737249 23.9522117,9.24941223 C23.9522643,9.03145197 23.7755597,8.85474735 23.5575468,8.85474735 Z" id="Path"></path>
                        </g>
                    </g>
                </g>
            </g>
        </g>
    </g>
</svg>