<?xml version="1.0" encoding="UTF-8"?>
<svg width="28px" height="28px" viewBox="0 0 28 28" version="1.1" xmlns="http://www.w3.org/2000/svg" xmlns:xlink="http://www.w3.org/1999/xlink">
    <title>8685811A-1DF1-48DD-BA8B-7FA16BAD9115</title>
    <g id="Dashboard-&amp;-Account-Pages" stroke="none" stroke-width="1" fill="none" fill-rule="evenodd">
        <g id="Account_Address-Book" transform="translate(-104.000000, -366.000000)">
            <rect fill="#FFFFFF" x="0" y="0" width="1440" height="1721"></rect>
            <g id="Dashboard-TAB" transform="translate(80.000000, 284.000000)">
                <g id="Input-Field/Standard-Inactive" transform="translate(0.000000, 68.000000)">
                    <rect id="Rectangle" stroke="#C8C8C8" fill="#FFFFFF" x="0.5" y="0.5" width="245" height="55" rx="10"></rect>
                    <g id="Icon/24px/Chevron/Right" transform="translate(24.000000, 14.000000)" fill="#000000" fill-rule="nonzero">
                        <path d="M23.8995312,18.1004688 C22.3746797,16.5756719 20.5597109,15.4468672 18.5794766,14.7635469 C20.7003672,13.3027891 22.09375,10.8580938 22.09375,8.09375 C22.09375,3.63086719 18.4628828,0 14,0 C9.53711719,0 5.90625,3.63086719 5.90625,8.09375 C5.90625,10.8580938 7.29963281,13.3027891 9.42057813,14.7635469 C7.44034375,15.4468672 5.625375,16.5756719 4.10052344,18.1004688 C1.45627344,20.7447734 0,24.2604688 0,28 L2.1875,28 C2.1875,21.4865547 7.48655469,16.1875 14,16.1875 C20.5134453,16.1875 25.8125,21.4865547 25.8125,28 L28,28 C28,24.2604688 26.5437266,20.7447734 23.8995312,18.1004688 Z M14,14 C10.7433047,14 8.09375,11.3505 8.09375,8.09375 C8.09375,4.837 10.7433047,2.1875 14,2.1875 C17.2566953,2.1875 19.90625,4.837 19.90625,8.09375 C19.90625,11.3505 17.2566953,14 14,14 Z" id="Shape"></path>
                    </g>
                </g>
            </g>
        </g>
    </g>
</svg>