<?xml version="1.0" encoding="UTF-8"?>
<svg width="28px" height="28px" viewBox="0 0 28 28" version="1.1" xmlns="http://www.w3.org/2000/svg" xmlns:xlink="http://www.w3.org/1999/xlink">
    <title>F9050773-D9A9-4BBC-8B71-A3994CD457B9</title>
    <g id="Dashboard-&amp;-Account-Pages" stroke="none" stroke-width="1" fill="none" fill-rule="evenodd">
        <g id="Account_Address-Book" transform="translate(-104.000000, -518.000000)">
            <rect fill="#FFFFFF" x="0" y="0" width="1440" height="1721"></rect>
            <g id="Dashboard-TAB" transform="translate(80.000000, 284.000000)">
                <g id="Input-Field/Standard-Inactive" transform="translate(0.000000, 220.000000)">
                    <rect id="Rectangle" stroke="#C8C8C8" fill="#FFFFFF" x="0.5" y="0.5" width="245" height="55" rx="10"></rect>
                    <g id="Icon/24px/Chevron/Right" transform="translate(24.000000, 14.000000)" fill="#000000" fill-rule="nonzero" stroke="#000000" stroke-width="0.5">
                        <path d="M20.2092664,0 C21.2167614,0 22.0364488,0.818789579 22.0364488,1.82527455 L22.0364488,1.82527455 L22.0364488,11.2363607 C25.8570179,12.0584609 28.7295149,15.4615551 28.7295149,19.5232946 C28.7295149,24.1973307 24.9258917,28 20.2506211,28 C16.4481201,28 13.2223406,25.484489 12.1504287,22.0307255 L12.1504287,22.0307255 L1.82566722,22.0307255 C0.819013912,22.0307255 5.59959365e-05,21.2112064 5.59959365e-05,20.2038798 L5.59959365e-05,20.2038798 L5.59959365e-05,13.5333146 C5.59959365e-05,13.2234629 0.251270425,12.9721924 0.56117824,12.9721924 C0.871086056,12.9721924 1.12230048,13.2234629 1.12230048,13.5333146 L1.12230048,13.5333146 L1.12230048,20.2038236 C1.12230048,20.5923447 1.43781952,20.9084248 1.82566722,20.9084248 L1.82566722,20.9084248 L11.885579,20.9084248 C11.8111181,20.457507 11.7717273,19.9949178 11.7717273,19.5232385 C11.7717273,14.8492024 15.5753506,11.0465331 20.2506211,11.0465331 C20.4738917,11.0465331 20.6951983,11.0553988 20.9142043,11.0724008 L20.9142043,11.0724008 L20.9142043,1.82527455 C20.9142043,1.43759519 20.5979558,1.12224449 20.2092664,1.12224449 L20.2092664,1.12224449 L15.0046332,1.12224449 L15.0046332,8.40033667 C15.0046332,8.83032465 14.5168496,9.10471343 14.1490901,8.87802004 L14.1490901,8.87802004 L11.0174668,6.94787174 L7.88584357,8.87802004 C7.71273736,8.9848016 7.49541471,8.98940281 7.31787564,8.89030862 C7.14033656,8.79121443 7.03030048,8.60374349 7.03030048,8.40039279 L7.03030048,8.40039279 L7.03030048,1.12224449 L1.82566722,1.12224449 C1.43781952,1.12224449 1.12230048,1.43759519 1.12230048,1.82527455 L1.12230048,1.82527455 L1.12230048,8.49578357 C1.12230048,8.80563527 0.871086056,9.05690581 0.56117824,9.05690581 C0.251270425,9.05690581 5.59959365e-05,8.80563527 5.59959365e-05,8.49578357 L5.59959365e-05,8.49578357 L5.59959365e-05,1.82527455 C5.59959365e-05,0.818845691 0.819013912,0 1.82566722,0 L1.82566722,0 Z M20.2506211,12.1688337 C16.1941562,12.1688337 12.8939718,15.4680641 12.8939718,19.5232946 C12.8939718,23.5785251 16.1941562,26.8777555 20.2506211,26.8777555 C24.3070861,26.8777555 27.6072704,23.5785812 27.6072704,19.5232946 C27.6072704,15.468008 24.3070861,12.1688337 20.2506211,12.1688337 Z M19.3339718,14.4799279 C19.5533145,14.260978 19.908561,14.2610902 20.127567,14.4803768 C20.346573,14.6996633 20.3463486,15.0549659 20.1271181,15.2739719 L20.1271181,15.2739719 L19.1266933,16.2732745 L21.2701802,16.2732745 C23.2468456,16.2732745 24.8549658,17.881002 24.8549658,19.8571062 C24.8549658,21.8341643 23.2469017,23.4426212 21.2702364,23.4426212 L21.2702364,23.4426212 L16.2075109,23.4426212 C15.8976031,23.4426212 15.6463887,23.1913507 15.6463887,22.881499 C15.6463887,22.5716473 15.8976031,22.3203768 16.2075109,22.3203768 L16.2075109,22.3203768 L21.2702364,22.3203768 C22.62804,22.3203768 23.7327213,21.2153587 23.7327213,19.8571062 C23.7327213,18.4997515 22.62804,17.3954068 21.2702364,17.3954068 L21.2702364,17.3954068 L19.1266933,17.3954068 L20.1271181,18.3947655 C20.3463486,18.6138277 20.3465169,18.9691303 20.1275109,19.1883607 C20.0179237,19.2980601 19.8742203,19.3529379 19.7305169,19.3529379 C19.587038,19.3529379 19.443559,19.2982285 19.3339718,19.1888096 L19.3339718,19.1888096 L17.3744207,17.2313347 C17.1581081,17.016986 17.1581081,16.6517515 17.3744207,16.4373467 L17.3744207,16.4373467 Z M9.54143475,18.0080962 C9.85134257,18.0080962 10.102557,18.2593667 10.102557,18.5692184 C10.102557,18.8790701 9.85134257,19.1303407 9.54143475,19.1303407 L9.54143475,19.1303407 L3.44327042,19.1303407 C3.13336261,19.1303407 2.88214818,18.8790701 2.88214818,18.5692184 C2.88214818,18.2593667 3.13336261,18.0080962 3.44327042,18.0080962 L3.44327042,18.0080962 Z M3.89183155,15.3446172 C4.20173936,15.3446172 4.45295379,15.5958878 4.45295379,15.9057395 C4.45295379,16.2155912 4.20173936,16.4668617 3.89183155,16.4668617 L3.89183155,16.4668617 L3.44327042,16.4668617 C3.13336261,16.4668617 2.88214818,16.2155912 2.88214818,15.9057395 C2.88214818,15.5958878 3.13336261,15.3446172 3.44327042,15.3446172 L3.44327042,15.3446172 Z M9.54143475,15.3446172 C9.85134257,15.3446172 10.102557,15.5958878 10.102557,15.9057395 C10.102557,16.2155912 9.85134257,16.4668617 9.54143475,16.4668617 L9.54143475,16.4668617 L6.13766722,16.4668617 C5.8277594,16.4668617 5.57654497,16.2155912 5.57654497,15.9057395 C5.57654497,15.5958878 5.8277594,15.3446172 6.13766722,15.3446172 L6.13766722,15.3446172 Z M0.56117824,10.4534269 C0.871086056,10.4534269 1.12230048,10.7046974 1.12230048,11.0145491 C1.12230048,11.3244008 0.871086056,11.5772425 0.56117824,11.5772425 C0.251270425,11.5772425 5.59959365e-05,11.3275992 5.59959365e-05,11.0177475 L5.59959365e-05,11.0177475 C5.59959365e-05,10.7046974 0.251270425,10.4534269 0.56117824,10.4534269 Z M13.8823887,1.12224449 L8.15254497,1.12224449 L8.15254497,7.39542285 L10.723046,5.81109419 C10.903559,5.69987976 11.1313746,5.69987976 11.3118877,5.81109419 L11.3118877,5.81109419 L13.8823887,7.39542285 L13.8823887,1.12224449 Z" id="Combined-Shape"></path>
                    </g>
                </g>
            </g>
        </g>
    </g>
</svg>