<?xml version="1.0" encoding="UTF-8"?>
<svg width="28px" height="28px" viewBox="0 0 28 28" version="1.1" xmlns="http://www.w3.org/2000/svg" xmlns:xlink="http://www.w3.org/1999/xlink">
    <title>294A2F28-FC2C-475A-B6DE-CF1A3ECC414F</title>
    <g id="Dashboard-&amp;-Account-Pages" stroke="none" stroke-width="1" fill="none" fill-rule="evenodd">
        <g id="Account_Address-Book" transform="translate(-104.000000, -822.000000)">
            <rect fill="#FFFFFF" x="0" y="0" width="1440" height="1721"></rect>
            <g id="Dashboard-TAB" transform="translate(80.000000, 284.000000)">
                <g id="Input-Field/Standard-Inactive" transform="translate(0.000000, 524.000000)">
                    <rect id="Rectangle" stroke="#C8C8C8" fill="#FFFFFF" x="0.5" y="0.5" width="245" height="55" rx="10"></rect>
                    <g id="Icon/24px/Chevron/Right" transform="translate(24.000000, 14.000000)">
                        <g id="Group" transform="translate(0.875000, 0.875000)">
                            <path d="M19.6879737,18.8129527 L20.5629948,18.8129527 C20.8046252,18.8129527 21.0005053,19.0088328 21.0005053,19.2504632 L21.8755264,19.2504632 C21.8755264,18.525572 21.287886,17.9379316 20.5629948,17.9379316 L20.5629948,17.5004211 L19.6879737,17.5004211 L19.6879737,17.9379316 C18.9630825,17.9379316 18.3754421,18.525572 18.3754421,19.2504632 C18.3754421,19.9753544 18.9630825,20.5629948 19.6879737,20.5629948 L20.5629948,20.5629948 C20.8046252,20.5629948 21.0005053,20.7588749 21.0005053,21.0005053 C21.0005053,21.2421357 20.8046252,21.4380158 20.5629948,21.4380158 L19.6879737,21.4380158 C19.4463433,21.4380158 19.2504632,21.2421357 19.2504632,21.0005053 L18.3754421,21.0005053 C18.3754421,21.7253965 18.9630825,22.3130369 19.6879737,22.3130369 L19.6879737,22.7505474 L20.5629948,22.7505474 L20.5629948,22.3130369 C21.2878859,22.3130369 21.8755264,21.7253965 21.8755264,21.0005053 C21.8755264,20.2756141 21.2878859,19.6879738 20.5629948,19.6879737 L19.6879737,19.6879737 C19.4463433,19.6879737 19.2504632,19.4920936 19.2504632,19.2504632 C19.2504632,19.0088328 19.4463433,18.8129527 19.6879737,18.8129527 L19.6879737,18.8129527 Z" id="Path" fill="#000000" fill-rule="nonzero"></path>
                            <path d="M20.1254842,15.750379 C17.7091803,15.750379 15.750379,17.7091803 15.750379,20.1254842 C15.750379,22.5417882 17.7091803,24.5005895 20.1254842,24.5005895 C22.5417882,24.5005895 24.5005895,22.5417882 24.5005895,20.1254842 C24.4979372,17.7102798 22.5406887,15.7530313 20.1254842,15.750379 Z M20.1254842,23.6255685 C18.1924411,23.6255685 16.6254,22.0585274 16.6254,20.1254842 C16.6254,18.1924411 18.1924411,16.6254 20.1254842,16.6254 C22.0585274,16.6254 23.6255685,18.1924411 23.6255685,20.1254842 C23.6233985,22.0576278 22.0576278,23.6233985 20.1254842,23.6255685 L20.1254842,23.6255685 Z" id="Shape" fill="#000000" fill-rule="nonzero"></path>
                            <path d="M23.6255685,15.105926 L23.6255685,9.58148054 C24.6434003,9.37216122 25.3742988,8.47681058 25.3756106,7.43767896 L25.3756106,4.8126158 C25.3755393,4.72290896 25.3478944,4.63539216 25.2964212,4.56192227 L22.2338475,0.186816995 C22.1520419,0.0698114313 22.0182934,0 21.8755264,0 L3.50008422,0 C3.35731713,0 3.22356863,0.0698114313 3.1417631,0.186816995 L0.0791894054,4.56192227 C0.0277161472,4.63539216 0,4.72290896 0,4.8126158 L0,7.43767896 C0.00131178231,8.47681058 0.732210267,9.37216122 1.75004211,9.58148054 L1.75004211,22.3130369 C1.75004211,23.0379281 2.33768251,23.6255685 3.06257369,23.6255685 L15.105926,23.6255685 C16.5039184,25.6342795 18.9641286,26.6170796 21.3613435,26.1244706 C23.7585584,25.6318616 25.6318616,23.7585584 26.1244706,21.3613435 C26.6170796,18.9641286 25.6342795,16.5039184 23.6255685,15.105926 Z M3.7280272,0.875021054 L21.6475834,0.875021054 L24.0976423,4.37510527 L1.27796825,4.37510527 L3.7280272,0.875021054 Z M0.875021054,7.43767896 L0.875021054,5.25012633 L24.5005895,5.25012633 L24.5005895,7.43767896 C24.5005895,8.16257014 23.9129491,8.75021054 23.1880579,8.75021054 C22.4631668,8.75021054 21.8755264,8.16257014 21.8755264,7.43767896 L21.0005053,7.43767896 C21.0005053,8.16257012 20.4128649,8.75021054 19.6879737,8.75021054 C18.9630826,8.75021054 18.3754422,8.16257012 18.3754421,7.43767896 L17.5004211,7.43767896 C17.5004211,8.16257014 16.9127807,8.75021054 16.1878895,8.75021054 C15.4629983,8.75021054 14.8753579,8.16257014 14.8753579,7.43767896 L14.0003369,7.43767896 C14.0003369,8.16257014 13.4126965,8.75021054 12.6878053,8.75021054 C11.9629141,8.75021054 11.3752737,8.16257014 11.3752737,7.43767896 L10.5002527,7.43767896 C10.5002527,8.16257014 9.91261225,8.75021054 9.18772107,8.75021054 C8.46282989,8.75021054 7.87518949,8.16257014 7.87518949,7.43767896 L7.00016843,7.43767896 C7.00016843,8.16257014 6.41252803,8.75021054 5.68763685,8.75021054 C4.96274568,8.75021054 4.37510527,8.16257014 4.37510527,7.43767896 L3.50008422,7.43767896 C3.50008421,8.16257013 2.9124438,8.75021054 2.18755264,8.75021054 C1.46266147,8.75021054 0.875021054,8.16257013 0.875021054,7.43767896 Z M12.2502948,22.7505474 L4.37510527,22.7505474 L3.06257369,22.7505474 C2.8209433,22.7505474 2.62506316,22.5546673 2.62506316,22.3130369 L2.62506316,9.58148054 C3.15160705,9.47119819 3.61895638,9.17053679 3.93759474,8.73708523 C4.34569948,9.2956183 4.99589364,9.6258048 5.68763685,9.6258048 C6.37938006,9.6258048 7.02957422,9.2956183 7.43767896,8.73708523 C7.8457837,9.2956183 8.49597786,9.6258048 9.18772107,9.6258048 C9.87946428,9.6258048 10.5296584,9.2956183 10.9377632,8.73708523 C11.3458679,9.2956183 11.9960621,9.6258048 12.6878053,9.6258048 C13.3795485,9.6258048 14.0297427,9.2956183 14.4378474,8.73708523 C14.8459521,9.2956183 15.4961463,9.6258048 16.1878895,9.6258048 C16.8796327,9.6258048 17.5298269,9.2956183 17.9379316,8.73708523 C18.3460363,9.2956183 18.9962305,9.6258048 19.6879737,9.6258048 C20.3797169,9.6258048 21.0299111,9.2956183 21.4380158,8.73708523 C21.7566542,9.17053679 22.2240035,9.47119819 22.7505474,9.58148054 L22.7505474,14.5997263 C20.4127494,13.4800076 17.6228787,13.9570719 15.7899753,15.7899753 C13.9570719,17.6228787 13.4800076,20.4127494 14.5997263,22.7505474 L12.2502948,22.7505474 Z M20.1254842,25.3756106 C17.2259195,25.3756106 14.8753579,23.025049 14.8753579,20.1254842 C14.8753579,17.2259195 17.2259195,14.8753579 20.1254842,14.8753579 C23.025049,14.8753579 25.3756106,17.2259195 25.3756106,20.1254842 C25.3724759,23.0237495 23.0237495,25.3724759 20.1254842,25.3756106 Z" id="Shape" stroke="#000000" stroke-width="0.3" fill="#000000" fill-rule="nonzero"></path>
                            <path d="M11.6000247,12.3259315 L12.1000247,23.106822 L4.94746823,23.106822 L4.94746823,12.8259315 L11.6000247,12.3259315 Z" id="Rectangle" stroke="#000000"></path>
                        </g>
                    </g>
                </g>
            </g>
        </g>
    </g>
</svg>