<?xml version="1.0" encoding="UTF-8"?>
<svg width="28px" height="28px" viewBox="0 0 28 28" version="1.1" xmlns="http://www.w3.org/2000/svg" xmlns:xlink="http://www.w3.org/1999/xlink">
    <title>0C0FD6FB-7A23-40F2-993C-17523004256F</title>
    <g id="Dashboard-&amp;-Account-Pages" stroke="none" stroke-width="1" fill="none" fill-rule="evenodd">
        <g id="Account_Address-Book" transform="translate(-104.000000, -746.000000)">
            <rect fill="#FFFFFF" x="0" y="0" width="1440" height="1721"></rect>
            <g id="Dashboard-TAB" transform="translate(80.000000, 284.000000)">
                <g id="Input-Field/Standard-Inactive" transform="translate(0.000000, 448.000000)">
                    <rect id="Rectangle" stroke="#C8C8C8" fill="#FFFFFF" x="0.5" y="0.5" width="245" height="55" rx="10"></rect>
                    <g id="Icon/24px/Chevron/Right" transform="translate(24.000000, 14.000000)" fill="#000000" fill-rule="nonzero" stroke="#000000" stroke-width="0.4">
                        <path d="M12.5416667,9.56666667 C12.5416667,12.9439917 15.2893417,15.6916667 18.6666667,15.6916667 C22.0439917,15.6916667 24.7916667,12.9439917 24.7916667,9.56666667 C24.7916667,6.18934167 22.0439917,3.44166667 18.6666667,3.44166667 C15.2893417,3.44166667 12.5416667,6.18934167 12.5416667,9.56666667 Z M23.8583333,9.56666667 C23.8583333,12.429375 21.529375,14.7583333 18.6666667,14.7583333 C15.8039583,14.7583333 13.475,12.429375 13.475,9.56666667 C13.475,6.70395833 15.8039583,4.375 18.6666667,4.375 C21.529375,4.375 23.8583333,6.70395833 23.8583333,9.56666667 Z M20.5459197,12.6291667 C20.4603586,12.6291667 20.3748791,12.5966225 20.3097906,12.5311262 L17.971175,10.1925106 C17.9083704,10.129706 17.8732161,10.0446343 17.8732161,9.95646313 L17.8732161,6.83825461 C17.8732161,6.65383742 18.0228869,6.50416667 18.2073041,6.50416667 C18.3917213,6.50416667 18.541392,6.65383742 18.541392,6.83825461 L18.541392,9.81788514 L20.7820487,12.0585419 C20.9125518,12.189045 20.9125518,12.4006231 20.7820487,12.5311262 C20.7169603,12.5966225 20.6314808,12.6291667 20.5459197,12.6291667 L20.5459197,12.6291667 Z M26.25,18.7833333 L26.25,24.7333333 C26.25,26.5346083 24.78455,28 22.9833333,28 L5.01666667,28 C3.21545,28 1.75,26.5346083 1.75,24.7333333 L1.75,1.86666667 C1.75,0.837375 2.587375,0 3.61666667,0 L18.7833333,0 C19.812625,0 20.65,0.837375 20.65,1.86666667 C20.65,2.12438333 20.44105,2.33333333 20.1833333,2.33333333 C19.9256167,2.33333333 19.7166667,2.12438333 19.7166667,1.86666667 C19.7166667,1.35205 19.29795,0.933333333 18.7833333,0.933333333 L3.61666667,0.933333333 C3.10205,0.933333333 2.68333333,1.35205 2.68333333,1.86666667 L2.68333333,24.7333333 C2.68333333,26.0199333 3.73006667,27.0666667 5.01666667,27.0666667 L20.7002833,27.0666667 C20.0939083,26.4733 19.7166667,25.6467167 19.7166667,24.7333333 L19.7166667,17.4416667 C19.7166667,17.18395 19.9256167,16.975 20.1833333,16.975 C20.44105,16.975 20.65,17.18395 20.65,17.4416667 L20.65,24.7333333 C20.65,26.0199333 21.6967333,27.0666667 22.9833333,27.0666667 C24.2699333,27.0666667 25.3166667,26.0199333 25.3166667,24.7333333 L25.3166667,18.7833333 C25.3166667,18.2687167 24.89795,17.85 24.3833333,17.85 L22.4,17.85 C22.1422833,17.85 21.9333333,17.64105 21.9333333,17.3833333 C21.9333333,17.1256167 22.1422833,16.9166667 22.4,16.9166667 L24.3833333,16.9166667 C25.412625,16.9166667 26.25,17.7540417 26.25,18.7833333 Z M5.83333333,12.5416667 C5.83333333,12.28395 6.04228333,12.075 6.3,12.075 L10.2666667,12.075 C10.5243833,12.075 10.7333333,12.28395 10.7333333,12.5416667 C10.7333333,12.7993833 10.5243833,13.0083333 10.2666667,13.0083333 L6.3,13.0083333 C6.04228333,13.0083333 5.83333333,12.7993833 5.83333333,12.5416667 Z M5.83333333,7.29166667 C5.83333333,7.03395 6.04228333,6.825 6.3,6.825 L10.2666667,6.825 C10.5243833,6.825 10.7333333,7.03395 10.7333333,7.29166667 C10.7333333,7.54938333 10.5243833,7.75833333 10.2666667,7.75833333 L6.3,7.75833333 C6.04228333,7.75833333 5.83333333,7.54938333 5.83333333,7.29166667 Z M16.5666667,17.7916667 C16.5666667,18.0493833 16.3577167,18.2583333 16.1,18.2583333 L6.3,18.2583333 C6.04228333,18.2583333 5.83333333,18.0493833 5.83333333,17.7916667 C5.83333333,17.53395 6.04228333,17.325 6.3,17.325 L16.1,17.325 C16.3577167,17.325 16.5666667,17.53395 16.5666667,17.7916667 Z M16.5666667,22.6916667 C16.5666667,22.9493833 16.3577167,23.1583333 16.1,23.1583333 L6.3,23.1583333 C6.04228333,23.1583333 5.83333333,22.9493833 5.83333333,22.6916667 C5.83333333,22.43395 6.04228333,22.225 6.3,22.225 L16.1,22.225 C16.3577167,22.225 16.5666667,22.43395 16.5666667,22.6916667 Z" id="Shape"></path>
                    </g>
                </g>
            </g>
        </g>
    </g>
</svg>