<?xml version="1.0" encoding="UTF-8"?>
<svg width="60px" height="28px" viewBox="0 0 60 28" version="1.1" xmlns="http://www.w3.org/2000/svg" xmlns:xlink="http://www.w3.org/1999/xlink">
    <title>72041E08-AC18-4F58-9B68-C1E13BC3CB96</title>
    <g id="Cart" stroke="none" stroke-width="1" fill="none" fill-rule="evenodd">
        <g id="CA_Cart" transform="translate(-1251.000000, -1411.000000)">
            <g id="Payment-section-left" transform="translate(923.000000, 434.000000)">
                <g id="Secure-Checkout" transform="translate(0.000000, 831.000000)">
                    <g id="Payment-Modes" transform="translate(68.000000, 146.000000)">
                        <g id="Visa" transform="translate(260.000000, 0.000000)">
                            <rect id="Rectangle" fill="#FFFFFF" x="0" y="0" width="60" height="28" rx="1.72568"></rect>
                            <g id="visa" transform="translate(16.571429, 9.333333)" fill-rule="nonzero">
                                <g id="Group" fill="#2566AF">
                                    <path d="M11.8905433,8.89965161 L9.65242886,8.89965161 L11.0512216,0.156232715 L13.289566,0.156232715 L11.8905433,8.89965161 Z M7.76958896,0.156232715 L5.63587238,6.17002284 L5.38338603,4.87502202 L5.38361598,4.87548979 L4.63052601,0.943477204 C4.63052601,0.943477204 4.53946536,0.156232715 3.56884162,0.156232715 L0.0413912044,0.156232715 L0,0.304279584 C0,0.304279584 1.07870078,0.532547743 2.34113251,1.30365442 L4.28559931,8.89988549 L6.61753377,8.89988549 L10.1783271,0.156232715 L7.76958896,0.156232715 Z M25.3734981,8.89965161 L27.4285714,8.89965161 L25.6367922,0.155998834 L23.8376545,0.155998834 C23.006841,0.155998834 22.804484,0.807592163 22.804484,0.807592163 L19.4665134,8.89965161 L21.7995976,8.89965161 L22.2661684,7.60090869 L25.1113538,7.60090869 L25.3734981,8.89965161 Z M22.9107215,5.80680516 L24.0866916,2.53480564 L24.748261,5.80680516 L22.9107215,5.80680516 Z M19.6415062,2.25882569 L19.9609083,0.381226535 C19.9609083,0.381226535 18.9753377,0 17.9479161,0 C16.8372521,0 14.1997126,0.493723445 14.1997126,2.89451509 C14.1997126,5.15334078 17.2953147,5.18140654 17.2953147,6.36788643 C17.2953147,7.55436631 14.5186548,7.3417682 13.6022995,6.59358189 L13.2695602,8.55678161 C13.2695602,8.55678161 14.2689279,9.05050505 15.7958034,9.05050505 C17.3231388,9.05050505 19.6272492,8.24618723 19.6272492,6.05705816 C19.6272492,3.78373183 16.5038229,3.57206925 16.5038229,2.58368683 C16.5040529,1.59507053 18.6837597,1.72206809 19.6415062,2.25882569 L19.6415062,2.25882569 Z" id="Shape"></path>
                                </g>
                                <path d="M5.14285714,4.52525253 L4.42344585,0.754881554 C4.42344585,0.754881554 4.33645749,2.27373675e-13 3.40924068,2.27373675e-13 L0.0395401626,2.27373675e-13 L0,0.141960791 C0,0.141960791 1.61960899,0.484640237 3.17309804,1.76856683 C4.65849015,2.99575395 5.14285714,4.52525253 5.14285714,4.52525253 Z" id="Path" fill="#E6A540"></path>
                            </g>
                        </g>
                    </g>
                </g>
            </g>
        </g>
    </g>
</svg>